<?xml version="1.0" encoding="UTF-8"?>
<svg width="19px" height="19px" viewBox="0 0 19 19" version="1.1" xmlns="http://www.w3.org/2000/svg" xmlns:xlink="http://www.w3.org/1999/xlink">
    <!-- Generator: Sketch 51.1 (57501) - http://www.bohemiancoding.com/sketch -->
    <title>32</title>
    <desc>Created with Sketch.</desc>
    <defs></defs>
    <g id="Page-1" stroke="none" stroke-width="1" fill="none" fill-rule="evenodd">
        <g id="Artboard-2" transform="translate(-4396.000000, -1885.000000)" fill="#2E406C">
            <path d="M4414.26139,1886.01525 C4414.48237,1886.17597 4414.57277,1886.39025 4414.53259,1886.65811 L4411.96116,1902.08668 C4411.92768,1902.28088 4411.82054,1902.43155 4411.63973,1902.53869 C4411.54598,1902.59226 4411.44219,1902.61905 4411.32835,1902.61905 C4411.25469,1902.61905 4411.17433,1902.60231 4411.08728,1902.56882 L4406.53706,1900.71057 L4404.10625,1903.67374 C4403.98572,1903.82775 4403.82165,1903.90476 4403.61406,1903.90476 C4403.52701,1903.90476 4403.45335,1903.89137 4403.39308,1903.86458 C4403.26585,1903.81771 4403.16373,1903.73903 4403.08672,1903.62853 C4403.00971,1903.51804 4402.97121,1903.39583 4402.97121,1903.2619 L4402.97121,1899.75632 L4411.64978,1889.11905 L4400.91206,1898.41034 L4396.94442,1896.78311 C4396.69665,1896.68936 4396.56273,1896.50521 4396.54264,1896.23065 C4396.52924,1895.9628 4396.63638,1895.76525 4396.86406,1895.63802 L4413.57835,1885.99516 C4413.6788,1885.9349 4413.78594,1885.90476 4413.89978,1885.90476 C4414.03371,1885.90476 4414.15424,1885.94159 4414.26139,1886.01525 Z" id="32"></path>
        </g>
    </g>
</svg>