<?xml version="1.0" encoding="UTF-8"?>
<svg width="11px" height="20px" viewBox="0 0 11 20" version="1.1" xmlns="http://www.w3.org/2000/svg" xmlns:xlink="http://www.w3.org/1999/xlink">
    <!-- Generator: Sketch 51.1 (57501) - http://www.bohemiancoding.com/sketch -->
    <title>33</title>
    <desc>Created with Sketch.</desc>
    <defs></defs>
    <g id="Page-1" stroke="none" stroke-width="1" fill="none" fill-rule="evenodd">
        <g id="Artboard-2" transform="translate(-4350.000000, -1885.000000)" fill="#2E406C">
            <path d="M4360.46281,1885.61607 L4360.46281,1888.5625 L4358.71058,1888.5625 C4358.0707,1888.5625 4357.63916,1888.69643 4357.41594,1888.96429 C4357.19272,1889.23214 4357.08112,1889.63393 4357.08112,1890.16964 L4357.08112,1892.27902 L4360.35121,1892.27902 L4359.91594,1895.58259 L4357.08112,1895.58259 L4357.08112,1904.05357 L4353.66594,1904.05357 L4353.66594,1895.58259 L4350.81996,1895.58259 L4350.81996,1892.27902 L4353.66594,1892.27902 L4353.66594,1889.84598 C4353.66594,1888.46205 4354.05284,1887.38877 4354.82665,1886.62612 C4355.60047,1885.86346 4356.63096,1885.48214 4357.91817,1885.48214 C4359.01193,1885.48214 4359.86013,1885.52679 4360.46281,1885.61607 Z" id="33"></path>
        </g>
    </g>
</svg>