<?xml version="1.0" encoding="UTF-8"?>
<svg width="8px" height="13px" viewBox="0 0 8 13" version="1.1" xmlns="http://www.w3.org/2000/svg" xmlns:xlink="http://www.w3.org/1999/xlink">
    <!-- Generator: Sketch 51.1 (57501) - http://www.bohemiancoding.com/sketch -->
    <title></title>
    <desc>Created with Sketch.</desc>
    <defs></defs>
    <g id="Page-1" stroke="none" stroke-width="1" fill="none" fill-rule="evenodd">
        <g id="Artboard-2" transform="translate(-4163.000000, -5215.000000)" fill="#7E879E">
            <path d="M4170.30101,5221.66281 L4164.35298,5227.61083 C4164.26789,5227.69592 4164.17003,5227.73847 4164.05941,5227.73847 C4163.94879,5227.73847 4163.85093,5227.69592 4163.76584,5227.61083 L4163.12764,5226.97263 C4163.04255,5226.88753 4163,5226.78968 4163,5226.67906 C4163,5226.56843 4163.04255,5226.47058 4163.12764,5226.38548 L4168.14389,5221.36923 L4163.12764,5216.35298 C4163.04255,5216.26789 4163,5216.17003 4163,5216.05941 C4163,5215.94879 4163.04255,5215.85093 4163.12764,5215.76584 L4163.76584,5215.12764 C4163.85093,5215.04255 4163.94879,5215 4164.05941,5215 C4164.17003,5215 4164.26789,5215.04255 4164.35298,5215.12764 L4170.30101,5221.07566 C4170.3861,5221.16076 4170.42865,5221.25861 4170.42865,5221.36923 C4170.42865,5221.47986 4170.3861,5221.57771 4170.30101,5221.66281 Z" id=""></path>
        </g>
    </g>
</svg>