<?xml version="1.0" encoding="UTF-8"?>
<svg width="19px" height="19px" viewBox="0 0 19 19" version="1.1" xmlns="http://www.w3.org/2000/svg" xmlns:xlink="http://www.w3.org/1999/xlink">
    <!-- Generator: Sketch 51.1 (57501) - http://www.bohemiancoding.com/sketch -->
    <title>Shape</title>
    <desc>Created with Sketch.</desc>
    <defs></defs>
    <g id="Symbols" stroke="none" stroke-width="1" fill="none" fill-rule="evenodd">
        <g id="вилоятлар" transform="translate(-322.000000, -197.000000)" fill="#B6C8E3" fill-rule="nonzero">
            <g id="Group-15" transform="translate(-271.000000, 0.000000)">
                <path d="M609.376209,199.395349 C607.628319,197.79845 605.454209,197 602.85779,197 C600.128421,197 597.801811,197.906977 595.881869,199.724806 C593.961926,201.542636 593,203.802326 593,206.507752 C593,209.100775 593.915003,211.329457 595.741099,213.197674 C597.575015,215.065891 600.038485,216 603.139329,216 C605.008438,216 606.842354,215.620155 608.641078,214.856589 C609.227619,214.608527 609.513069,213.94186 609.274542,213.356589 C609.028195,212.751938 608.332167,212.472868 607.726075,212.728682 C606.161967,213.395349 604.629142,213.728682 603.135419,213.728682 C600.757975,213.728682 598.916238,213.011628 597.610208,211.573643 C596.308088,210.139535 595.655073,208.453488 595.655073,206.51938 C595.655073,204.418605 596.355011,202.666667 597.750978,201.25969 C599.143034,199.856589 600.859642,199.151163 602.892982,199.151163 C604.766001,199.151163 606.34966,199.728682 607.640049,200.883721 C608.930438,202.03876 609.575633,203.492248 609.575633,205.244186 C609.575633,206.44186 609.278452,207.44186 608.688002,208.236434 C608.097551,209.034884 607.483639,209.430233 606.846265,209.430233 C606.502161,209.430233 606.330109,209.248062 606.330109,208.879845 C606.330109,208.581395 606.353571,208.232558 606.396584,207.829457 L607.123894,201.934109 L604.621321,201.934109 L604.461,202.511628 C603.823626,201.996124 603.123688,201.736434 602.365096,201.736434 C601.160733,201.736434 600.128421,202.213178 599.272072,203.162791 C598.411813,204.112403 597.985594,205.337209 597.985594,206.833333 C597.985594,208.294574 598.36489,209.476744 599.127392,210.372093 C599.889895,211.271318 600.804898,211.717054 601.876312,211.717054 C602.834328,211.717054 603.651574,211.317829 604.331961,210.523256 C604.844207,211.286822 605.598889,211.666667 606.596007,211.666667 C608.062359,211.666667 609.329286,211.034884 610.396789,209.767442 C611.464293,208.503876 612,206.976744 612,205.189922 C612,202.926357 611.12801,200.992248 609.376209,199.395349 Z M603.612472,208.313953 C603.170611,208.903101 602.642725,209.20155 602.028813,209.20155 C601.610414,209.20155 601.27413,208.984496 601.019963,208.550388 C600.761885,208.116279 600.632846,207.577519 600.632846,206.930233 C600.632846,206.131783 600.812719,205.488372 601.172463,205 C601.532208,204.511628 601.977979,204.263566 602.509776,204.263566 C602.971187,204.263566 603.381766,204.445736 603.741511,204.813953 C604.101255,205.182171 604.281128,205.670543 604.281128,206.282946 C604.277218,207.046512 604.054332,207.72093 603.612472,208.313953 Z" id="Shape"></path>
            </g>
        </g>
    </g>
</svg>