<?xml version="1.0" encoding="UTF-8"?>
<svg width="20px" height="15px" viewBox="0 0 20 15" version="1.1" xmlns="http://www.w3.org/2000/svg" xmlns:xlink="http://www.w3.org/1999/xlink">
    <!-- Generator: Sketch 51.1 (57501) - http://www.bohemiancoding.com/sketch -->
    <title>backspace-arrow</title>
    <desc>Created with Sketch.</desc>
    <defs>
        <polygon id="path-1" points="9.6295 0.6 0.06 0.6 0.06 14.998 19.199 14.998 19.199 0.6"></polygon>
    </defs>
    <g id="Page-1" stroke="none" stroke-width="1" fill="none" fill-rule="evenodd">
        <g id="Artboard-2" transform="translate(-5080.000000, -7406.000000)">
            <g id="backspace-arrow" transform="translate(5080.000000, 7406.000000)">
                <mask id="mask-2" fill="white">
                    <use xlink:href="#path-1"></use>
                </mask>
                <g id="Clip-2"></g>
                <path d="M17.602,0.6 L5.602,0.6 C5.039,0.6 4.641,0.838 4.32,1.319 L0,7.799 L4.32,14.28 C4.641,14.678 5.039,14.998 5.602,14.998 L17.602,14.998 C18.48,14.998 19.199,14.28 19.199,13.401 L19.199,2.202 C19.199,1.319 18.48,0.6 17.602,0.6 Z M15.199,10.678 L14.078,11.799 L11.199,8.92 L8.32,11.799 L7.199,10.678 L10.078,7.799 L7.199,4.92 L8.32,3.799 L11.199,6.678 L14.078,3.799 L15.199,4.92 L12.32,7.799 L15.199,10.678 Z" id="Fill-1" fill="#184FA8" mask="url(#mask-2)"></path>
            </g>
        </g>
    </g>
</svg>