<?xml version="1.0" encoding="UTF-8"?>
<svg width="17px" height="18px" viewBox="0 0 17 18" version="1.1" xmlns="http://www.w3.org/2000/svg" xmlns:xlink="http://www.w3.org/1999/xlink">
    <!-- Generator: Sketch 51.1 (57501) - http://www.bohemiancoding.com/sketch -->
    <title>calendar</title>
    <desc>Created with Sketch.</desc>
    <defs></defs>
    <g id="Page-1" stroke="none" stroke-width="1" fill="none" fill-rule="evenodd">
        <g id="Uzstandart28" transform="translate(-994.000000, -296.000000)" fill="#9DB2BB">
            <g id="Group-12" transform="translate(803.000000, 285.000000)">
                <g id="Group-9-Copy" transform="translate(63.000000, 0.000000)">
                    <g id="calendar" transform="translate(128.000000, 11.000000)">
                        <path d="M15.5833333,17.8947368 L1.41666667,17.8947368 C0.634263271,17.8947368 0,17.2270913 0,16.4035088 L0,2.98245614 C0,2.15887362 0.634263271,1.49122807 1.41666667,1.49122807 L2.83333333,1.49122807 L2.83333333,2.98245614 L1.41666667,2.98245614 L1.41666667,16.4035088 L15.5833333,16.4035088 L15.5833333,2.98245614 L14.1666667,2.98245614 L14.1666667,1.49122807 L15.5833333,1.49122807 C16.3657367,1.49122807 17,2.15887362 17,2.98245614 L17,16.4035088 C17,17.2270913 16.3657367,17.8947368 15.5833333,17.8947368 L15.5833333,17.8947368 Z M12.0416667,12.6754386 L13.4583333,12.6754386 C13.849535,12.6754386 14.1666667,13.0092614 14.1666667,13.4210526 C14.1666667,13.8328439 13.849535,14.1666667 13.4583333,14.1666667 L12.0416667,14.1666667 C11.650465,14.1666667 11.3333333,13.8328439 11.3333333,13.4210526 C11.3333333,13.0092614 11.650465,12.6754386 12.0416667,12.6754386 L12.0416667,12.6754386 Z M12.0416667,9.69298246 L13.4583333,9.69298246 C13.849535,9.69298246 14.1666667,10.0268052 14.1666667,10.4385965 C14.1666667,10.8503878 13.849535,11.1842105 13.4583333,11.1842105 L12.0416667,11.1842105 C11.650465,11.1842105 11.3333333,10.8503878 11.3333333,10.4385965 C11.3333333,10.0268052 11.650465,9.69298246 12.0416667,9.69298246 L12.0416667,9.69298246 Z M13.4583333,8.20175439 L12.0416667,8.20175439 C11.650465,8.20175439 11.3333333,7.86793161 11.3333333,7.45614035 C11.3333333,7.04434909 11.650465,6.71052632 12.0416667,6.71052632 L13.4583333,6.71052632 C13.849535,6.71052632 14.1666667,7.04434909 14.1666667,7.45614035 C14.1666667,7.86793161 13.849535,8.20175439 13.4583333,8.20175439 L13.4583333,8.20175439 Z M12.75,4.47368421 C12.3587983,4.47368421 12.0416667,4.13986144 12.0416667,3.72807018 L12.0416667,0.745614035 C12.0416667,0.333822774 12.3587983,0 12.75,0 C13.1412017,0 13.4583333,0.333822774 13.4583333,0.745614035 L13.4583333,3.72807018 C13.4583333,4.13986144 13.1412017,4.47368421 12.75,4.47368421 L12.75,4.47368421 Z M9.91666667,1.49122807 L11.3333333,1.49122807 L11.3333333,2.98245614 L9.91666667,2.98245614 L9.91666667,1.49122807 L9.91666667,1.49122807 Z M7.79166667,12.6754386 L9.20833333,12.6754386 C9.59953503,12.6754386 9.91666667,13.0092614 9.91666667,13.4210526 C9.91666667,13.8328439 9.59953503,14.1666667 9.20833333,14.1666667 L7.79166667,14.1666667 C7.40046497,14.1666667 7.08333333,13.8328439 7.08333333,13.4210526 C7.08333333,13.0092614 7.40046497,12.6754386 7.79166667,12.6754386 L7.79166667,12.6754386 Z M7.79166667,9.69298246 L9.20833333,9.69298246 C9.59953503,9.69298246 9.91666667,10.0268052 9.91666667,10.4385965 C9.91666667,10.8503878 9.59953503,11.1842105 9.20833333,11.1842105 L7.79166667,11.1842105 C7.40046497,11.1842105 7.08333333,10.8503878 7.08333333,10.4385965 C7.08333333,10.0268052 7.40046497,9.69298246 7.79166667,9.69298246 L7.79166667,9.69298246 Z M9.20833333,8.20175439 L7.79166667,8.20175439 C7.40046497,8.20175439 7.08333333,7.86793161 7.08333333,7.45614035 C7.08333333,7.04434909 7.40046497,6.71052632 7.79166667,6.71052632 L9.20833333,6.71052632 C9.59953503,6.71052632 9.91666667,7.04434909 9.91666667,7.45614035 C9.91666667,7.86793161 9.59953503,8.20175439 9.20833333,8.20175439 L9.20833333,8.20175439 Z M8.5,4.47368421 C8.1087983,4.47368421 7.79166667,4.13986144 7.79166667,3.72807018 L7.79166667,0.745614035 C7.79166667,0.333822774 8.1087983,0 8.5,0 C8.8912017,0 9.20833333,0.333822774 9.20833333,0.745614035 L9.20833333,3.72807018 C9.20833333,4.13986144 8.8912017,4.47368421 8.5,4.47368421 L8.5,4.47368421 Z M5.66666667,1.49122807 L7.08333333,1.49122807 L7.08333333,2.98245614 L5.66666667,2.98245614 L5.66666667,1.49122807 L5.66666667,1.49122807 Z M3.54166667,12.6754386 L4.95833333,12.6754386 C5.34953503,12.6754386 5.66666667,13.0092614 5.66666667,13.4210526 C5.66666667,13.8328439 5.34953503,14.1666667 4.95833333,14.1666667 L3.54166667,14.1666667 C3.15046497,14.1666667 2.83333333,13.8328439 2.83333333,13.4210526 C2.83333333,13.0092614 3.15046497,12.6754386 3.54166667,12.6754386 L3.54166667,12.6754386 Z M3.54166667,9.69298246 L4.95833333,9.69298246 C5.34953503,9.69298246 5.66666667,10.0268052 5.66666667,10.4385965 C5.66666667,10.8503878 5.34953503,11.1842105 4.95833333,11.1842105 L3.54166667,11.1842105 C3.15046497,11.1842105 2.83333333,10.8503878 2.83333333,10.4385965 C2.83333333,10.0268052 3.15046497,9.69298246 3.54166667,9.69298246 L3.54166667,9.69298246 Z M4.95833333,8.20175439 L3.54166667,8.20175439 C3.15046497,8.20175439 2.83333333,7.86793161 2.83333333,7.45614035 C2.83333333,7.04434909 3.15046497,6.71052632 3.54166667,6.71052632 L4.95833333,6.71052632 C5.34953503,6.71052632 5.66666667,7.04434909 5.66666667,7.45614035 C5.66666667,7.86793161 5.34953503,8.20175439 4.95833333,8.20175439 L4.95833333,8.20175439 Z M4.25,4.47368421 C3.8587983,4.47368421 3.54166667,4.13986144 3.54166667,3.72807018 L3.54166667,0.745614035 C3.54166667,0.333822774 3.8587983,0 4.25,0 C4.6412017,0 4.95833333,0.333822774 4.95833333,0.745614035 L4.95833333,3.72807018 C4.95833333,4.13986144 4.6412017,4.47368421 4.25,4.47368421 L4.25,4.47368421 Z"></path>
                    </g>
                </g>
            </g>
        </g>
    </g>
</svg>