<?xml version="1.0" encoding="UTF-8"?>
<svg width="29px" height="40px" viewBox="0 0 29 40" version="1.1" xmlns="http://www.w3.org/2000/svg" xmlns:xlink="http://www.w3.org/1999/xlink">
    <!-- Generator: Sketch 51.1 (57501) - http://www.bohemiancoding.com/sketch -->
    <title>Group 19</title>
    <desc>Created with Sketch.</desc>
    <defs></defs>
    <g id="Page-1" stroke="none" stroke-width="1" fill="none" fill-rule="evenodd">
        <g id="Uzstandart25" transform="translate(-446.000000, -526.000000)">
            <g id="Group-26" transform="translate(426.000000, 508.000000)">
                <g id="Group-25" transform="translate(20.000000, 18.000000)">
                    <g id="Group-19">
                        <g id="Group-13-Copy">
                            <g id="Group-10">
                                <path d="M2,0.50877193 L19.0456001,0.50877193 L28.4912281,9.64896951 L28.4912281,37.6842105 C28.4912281,38.78878 27.5957976,39.6842105 26.4912281,39.6842105 L2,39.6842105 C0.8954305,39.6842105 2.06108848e-15,38.78878 -1.99840144e-15,37.6842105 L0,2.50877193 C-1.3527075e-16,1.40420243 0.8954305,0.50877193 2,0.50877193 Z" id="Rectangle-7" fill="#2DB865"></path>
                                <path d="M19.0382351,0.505674535 L19.0382351,7.66179611 C19.0382351,8.76636561 19.9336656,9.66179611 21.0382351,9.66179611 L28.4972768,9.66179611 L19.0382351,0.505674535 Z" id="Path-4" fill-opacity="0.241706295" fill="#000000"></path>
                            </g>
                        </g>
                        <g id="Group-15" transform="translate(5.000000, 11.000000)" stroke="#FFFFFF" stroke-linecap="square">
                            <path d="M0.5,1.5 L17.5,1.5" id="Line-3"></path>
                            <path d="M1.5,5.5 L17.5,5.5" id="Line-3-Copy-30"></path>
                            <path d="M1.5,9.5 L17.5,9.5" id="Line-3-Copy-31"></path>
                            <path d="M1.5,13.5 L17.5,13.5" id="Line-3-Copy-32"></path>
                            <path d="M0.5,17.5 L17.5,17.5" id="Line-3-Copy-33"></path>
                            <path d="M0.5,2.35714286 L0.5,16.6428571" id="Line-4"></path>
                            <path d="M17.5,1.38095238 L17.5,16.6190476" id="Line-4-Copy"></path>
                            <path d="M4.5,2.35714286 L4.5,16.6428571" id="Line-4-Copy-2"></path>
                        </g>
                    </g>
                </g>
            </g>
        </g>
    </g>
</svg>