<?xml version="1.0" encoding="UTF-8"?>
<svg width="26px" height="30px" viewBox="0 0 26 30" version="1.1" xmlns="http://www.w3.org/2000/svg" xmlns:xlink="http://www.w3.org/1999/xlink">
    <!-- Generator: Sketch 51.1 (57501) - http://www.bohemiancoding.com/sketch -->
    <title>Group 25</title>
    <desc>Created with Sketch.</desc>
    <defs></defs>
    <g id="Page-1" stroke="none" stroke-width="1" fill="none" fill-rule="evenodd">
        <g id="Uzstandart6" transform="translate(-908.000000, -562.000000)">
            <g id="Group-25" transform="translate(908.000000, 562.000000)">
                <path d="M24.3523169,10.49207 L23.647963,10.49207 L23.647963,7.09361317 C23.647963,7.07226749 23.6446461,7.0510823 23.6418107,7.02941564 C23.6406872,6.89449383 23.5976749,6.76192593 23.505284,6.65706996 L17.849963,0.196604938 C17.8481975,0.194946502 17.8465391,0.194358025 17.8454156,0.192699588 C17.8117119,0.155037037 17.7724444,0.123580247 17.7307695,0.096617284 C17.7185185,0.088218107 17.706107,0.0813168724 17.693214,0.0742016461 C17.6572634,0.0546748971 17.6190123,0.0382510288 17.5797449,0.0264279835 C17.5690453,0.0236460905 17.5594691,0.0192592593 17.5488765,0.0163703704 C17.5061317,0.0063127572 17.4617819,0 17.4168971,0 L3.5178642,0 C2.88321811,0 2.36760494,0.516201646 2.36760494,1.15031276 L2.36760494,10.491749 L1.66335802,10.491749 C0.755444444,10.491749 0.0192592593,11.2276667 0.0192592593,12.1357407 L0.0192592593,20.6852469 C0.0192592593,21.592893 0.755444444,22.3295597 1.66335802,22.3295597 L2.36760494,22.3295597 L2.36760494,28.1821811 C2.36760494,28.8163457 2.88321811,29.3324403 3.5178642,29.3324403 L22.4976502,29.3324403 C23.1317613,29.3324403 23.6479095,28.8163457 23.6479095,28.1821811 L23.6479095,22.3296132 L24.3522634,22.3296132 C25.2599095,22.3296132 25.9962016,21.5932675 25.9962016,20.6855679 L25.9962016,12.1360617 C25.9962551,11.2279877 25.259963,10.49207 24.3523169,10.49207 Z M3.5178642,1.15058025 L16.8417407,1.15058025 L16.8417407,7.0356749 C16.8417407,7.35345267 17.0994403,7.61083128 17.4168971,7.61083128 L22.4977037,7.61083128 L22.4977037,10.492284 L3.5178642,10.492284 L3.5178642,1.15058025 Z M22.4977037,27.870716 L3.5178642,27.870716 L3.5178642,22.3296132 L22.4977037,22.3296132 L22.4977037,27.870716 Z" id="Shape" fill="#6DA7EC" fill-rule="nonzero"></path>
                <path d="M5.46,14.1375 C6.7145,14.1375 7.67,15.1255 7.67,16.4125 C7.67,17.6995 6.7145,18.6875 5.46,18.6875 L3.64,18.6875 L3.64,14.1375 L5.46,14.1375 Z M5.46,17.6865 C6.175,17.6865 6.669,17.1925 6.669,16.4125 C6.669,15.6325 6.175,15.1385 5.46,15.1385 L4.68,15.1385 L4.68,17.6865 L5.46,17.6865 Z M10.426,18.7785 C9.1195,18.7785 8.06,17.7515 8.06,16.4125 C8.06,15.0735 9.1195,14.0465 10.426,14.0465 C11.7325,14.0465 12.792,15.0735 12.792,16.4125 C12.792,17.7515 11.7325,18.7785 10.426,18.7785 Z M10.426,17.7645 C11.167,17.7645 11.752,17.225 11.752,16.4125 C11.752,15.6 11.167,15.0605 10.426,15.0605 C9.685,15.0605 9.1,15.6 9.1,16.4125 C9.1,17.225 9.685,17.7645 10.426,17.7645 Z M15.548,18.7785 C14.1765,18.7785 13.182,17.7515 13.182,16.4125 C13.182,15.0735 14.1765,14.0465 15.548,14.0465 C16.3735,14.0465 17.1015,14.456 17.498,15.0995 L16.601,15.6195 C16.3995,15.2685 16.0095,15.0605 15.548,15.0605 C14.742,15.0605 14.222,15.6 14.222,16.4125 C14.222,17.225 14.742,17.7645 15.548,17.7645 C16.0095,17.7645 16.406,17.5565 16.601,17.2055 L17.498,17.7255 C17.108,18.369 16.38,18.7785 15.548,18.7785 Z M21.6255,18.6875 L20.4425,18.6875 L19.6755,17.3745 L18.9085,18.6875 L17.7255,18.6875 L19.084,16.354 L17.7905,14.1375 L18.9735,14.1375 L19.6755,15.34 L20.3775,14.1375 L21.5605,14.1375 L20.267,16.354 L21.6255,18.6875 Z" id="docx" fill="#FFFFFF"></path>
            </g>
        </g>
    </g>
</svg>