<?xml version="1.0" encoding="UTF-8"?>
<svg width="21px" height="21px" viewBox="0 0 21 21" version="1.1" xmlns="http://www.w3.org/2000/svg" xmlns:xlink="http://www.w3.org/1999/xlink">
    <!-- Generator: Sketch 51.1 (57501) - http://www.bohemiancoding.com/sketch -->
    <title>sort-1</title>
    <desc>Created with Sketch.</desc>
    <defs></defs>
    <g id="Page-1" stroke="none" stroke-width="1" fill="none" fill-rule="evenodd">
        <g id="Uzstandart28" transform="translate(-1215.000000, -2042.000000)" fill="#184FA8" fill-rule="nonzero">
            <g id="Group-23-Copy" transform="translate(1200.000000, 2032.000000)">
                <path d="M30.8851655,29.7921362 L30.8937474,29.7921362 L30.8937474,11.8000662 L27.7355946,14.9619964 C27.5296281,15.1682092 27.1992235,15.1682092 26.993257,14.9619964 C26.7872906,14.7557835 26.7872906,14.4249838 26.993257,14.2187709 L31.0482223,10.1589557 C31.2456069,9.96133509 31.5931753,9.96133509 31.7905599,10.1589557 L35.8455251,14.2187709 C36.0514916,14.4249838 36.0514916,14.7557835 35.8455251,14.9619964 C35.7425419,15.0651028 35.6095219,15.116656 35.4722109,15.116656 C35.3348999,15.116656 35.2018799,15.0651028 35.0988966,14.9619964 L31.9407438,11.8000662 L31.9407438,29.7921362 C31.9407438,30.084271 31.7047405,30.3205566 31.4129546,30.3205566 C31.1211688,30.3205566 30.8851655,30.084271 30.8851655,29.7921362 Z M24.006743,25.3585602 C24.2084185,25.564773 24.2084185,25.8998689 24.0110339,26.1017856 L19.9560687,30.1616009 C19.8530854,30.2647073 19.7200654,30.3162605 19.5827544,30.3162605 C19.4454434,30.3162605 19.3124234,30.2647073 19.2094401,30.1616009 L15.1544749,26.1017856 C14.9485084,25.8955728 14.9485084,25.564773 15.1544749,25.3585602 C15.3604414,25.1523474 15.6908459,25.1523474 15.8968124,25.3585602 L19.0506743,28.5204904 L19.0506743,10.5284204 C19.0506743,10.2362855 19.2866776,10 19.5784634,10 C19.8702493,10 20.1062526,10.2362855 20.1062526,10.5284204 L20.1062526,28.5204904 L23.2644054,25.3585602 C23.4703719,25.1523474 23.8007765,25.1523474 24.006743,25.3585602 Z" id="sort-1"></path>
            </g>
        </g>
    </g>
</svg>