<?xml version="1.0" encoding="UTF-8"?>
<svg width="14px" height="9px" viewBox="0 0 14 9" version="1.1" xmlns="http://www.w3.org/2000/svg" xmlns:xlink="http://www.w3.org/1999/xlink">
    <!-- Generator: Sketch 51.1 (57501) - http://www.bohemiancoding.com/sketch -->
    <title>8</title>
    <desc>Created with Sketch.</desc>
    <defs>
        <polygon id="path-1" points="0 0 14 0 14 9 0 9"></polygon>
    </defs>
    <g id="Page-1" stroke="none" stroke-width="1" fill="none" fill-rule="evenodd">
        <g id="Artboard" transform="translate(-3226.000000, -1026.000000)">
            <g id="8" transform="translate(3226.000000, 1026.000000)">
                <mask id="mask-2" fill="white">
                    <use xlink:href="#path-1"></use>
                </mask>
                <g id="Clip-2"></g>
                <path d="M13.8435801,3.96109794 C13.1145795,2.76810591 12.133629,1.81016434 10.9022868,1.08583491 C9.67046515,0.361984924 8.36972286,0 6.99970035,0 C5.63027714,0 4.32953485,0.361984924 3.0977132,1.08583491 C1.8657717,1.81016434 0.885420502,2.76810591 0.156419894,3.96109794 C0.0520201026,4.14328903 0,4.32308286 0,4.5 C0,4.677037 0.0520201026,4.85683083 0.156419894,5.03890206 C0.885420502,6.23189409 1.8657717,7.19031511 3.0977132,7.91428495 C4.32953485,8.63813494 5.63027714,9 6.99970035,9 C8.36972286,9 9.67046515,8.63897398 10.9022868,7.91800069 C12.133629,7.1964281 13.1145795,6.23704818 13.8435801,5.03890206 C13.9479799,4.85683083 14,4.67751645 14,4.5 C14,4.32308286 13.9479799,4.14328903 13.8435801,3.96109794 Z M5.32402976,1.82418826 C5.79041275,1.3582825 6.34896961,1.12514983 6.99970035,1.12514983 C7.10422,1.12514983 7.19267814,1.16170791 7.2656741,1.23422476 C7.33831046,1.30722105 7.3747485,1.39579948 7.3747485,1.50019977 C7.3747485,1.60412061 7.33831046,1.69257918 7.2656741,1.76569534 C7.19267814,1.83869163 7.10422,1.87477026 7.00017979,1.87477026 C6.55213568,1.87477026 6.16917663,2.03394774 5.85166223,2.35134379 C5.53378824,2.66933916 5.37509097,3.05230003 5.37509097,3.49986682 C5.37509097,3.60438697 5.33853306,3.69284554 5.26553711,3.76584183 C5.1924213,3.83895799 5.10396315,3.87491676 5.00004281,3.87491676 C4.89564302,3.87491676 4.80706501,3.83847854 4.73406906,3.76584183 C4.66155256,3.69284554 4.62499465,3.60438697 4.62499465,3.49986682 C4.62499465,2.84913299 4.85812621,2.29057348 5.32402976,1.82418826 Z M10.3943117,7.05079509 C9.35019392,7.68342967 8.21845703,7.99986682 6.99970035,7.99986682 C5.78094366,7.99986682 4.64980608,7.68390912 3.60520886,7.05079509 C2.56109109,6.41828037 1.69257113,5.56797539 1.00012842,4.5 C1.79181685,3.27092933 2.78403438,2.35134379 3.9765413,1.74220227 C3.65902689,2.28398104 3.49985017,2.86974935 3.49985017,3.49986682 C3.49985017,4.46344192 3.84265546,5.287497 4.52718727,5.97251152 C5.21207866,6.65752604 6.03660928,6.9998535 6.99970035,6.9998535 C7.96339072,6.9998535 8.78732203,6.65752604 9.47233328,5.97251152 C10.1573445,5.287497 10.5001498,4.46344192 10.5001498,3.49986682 C10.5001498,2.86974935 10.3408532,2.28398104 10.0234587,1.74220227 C11.2159656,2.35134379 12.2081831,3.27092933 12.9998716,4.5 C12.3074289,5.56797539 11.4389089,6.41780092 10.3943117,7.05079509 Z" id="Fill-1" fill="#8B93A8" mask="url(#mask-2)"></path>
            </g>
        </g>
    </g>
</svg>