<?xml version="1.0" encoding="UTF-8"?>
<svg width="23px" height="30px" viewBox="0 0 23 30" version="1.1" xmlns="http://www.w3.org/2000/svg" xmlns:xlink="http://www.w3.org/1999/xlink">
    <!-- Generator: Sketch 51.1 (57501) - http://www.bohemiancoding.com/sketch -->
    <title>9</title>
    <desc>Created with Sketch.</desc>
    <defs>
        <polygon id="path-1" points="0.0363157895 0 22.7591053 0 22.7591053 29.1558173 0.0363157895 29.1558173"></polygon>
    </defs>
    <g id="Page-1" stroke="none" stroke-width="1" fill="none" fill-rule="evenodd">
        <g id="Artboard" transform="translate(-3193.000000, -1041.000000)">
            <g id="9" transform="translate(3193.000000, 1041.000000)">
                <g id="Group-3">
                    <mask id="mask-2" fill="white">
                        <use xlink:href="#path-1"></use>
                    </mask>
                    <g id="Clip-2"></g>
                    <path d="M21.3476316,0 L1.41147368,0 C0.633710526,0 0,0.636757212 0,1.41825962 L0,27.7740481 C0,28.5555505 0.633710526,29.1923077 1.41147368,29.1923077 L21.3476316,29.1923077 C22.1253947,29.1923077 22.7591053,28.5555505 22.7591053,27.7740481 L22.7591053,1.41825962 C22.7591053,0.636757212 22.1253947,0 21.3476316,0 Z M21.7894737,27.7740481 C21.7894737,28.0185337 21.5909474,28.2180144 21.3476316,28.2180144 L1.41147368,28.2180144 C1.16815789,28.2180144 0.969631579,28.0185337 0.969631579,27.7740481 L0.969631579,1.41825962 C0.969631579,1.17377404 1.16815789,0.974293269 1.41147368,0.974293269 L21.3476316,0.974293269 C21.5909474,0.974293269 21.7894737,1.17377404 21.7894737,1.41825962 L21.7894737,27.7740481 Z" id="Fill-1" fill="#184FA8" mask="url(#mask-2)"></path>
                </g>
                <path d="M2.65384615,26.5384615 L7.96153846,26.5384615 L7.96153846,21.2307692 L2.65384615,21.2307692 L2.65384615,26.5384615 Z M3.61997762,25.5723301 L6.99540699,25.5723301 L6.99540699,22.1969007 L3.61997762,22.1969007 L3.61997762,25.5723301 Z" id="Fill-4" fill="#184FA8"></path>
                <path d="M8.84615385,26.5384615 L14.1538462,26.5384615 L14.1538462,21.2307692 L8.84615385,21.2307692 L8.84615385,26.5384615 Z M9.81228532,25.5723301 L13.1907301,25.5723301 L13.1907301,22.1969007 L9.81228532,22.1969007 L9.81228532,25.5723301 Z" id="Fill-5" fill="#184FA8"></path>
                <path d="M15.0384615,26.5384615 L20.3461538,26.5384615 L20.3461538,15.0384615 L15.0384615,15.0384615 L15.0384615,26.5384615 Z M16.0015776,25.5788803 L19.3800224,25.5788803 L19.3800224,15.9950478 L16.0015776,15.9950478 L16.0015776,25.5788803 Z" id="Fill-6" fill="#184FA8"></path>
                <path d="M2.65384615,20.3461538 L7.96153846,20.3461538 L7.96153846,15.0384615 L2.65384615,15.0384615 L2.65384615,20.3461538 Z M3.61997762,19.3800224 L6.99540699,19.3800224 L6.99540699,16.0015776 L3.61997762,16.0015776 L3.61997762,19.3800224 Z" id="Fill-7" fill="#184FA8"></path>
                <path d="M8.84615385,20.3461538 L14.1538462,20.3461538 L14.1538462,15.0384615 L8.84615385,15.0384615 L8.84615385,20.3461538 Z M9.81228532,19.3800224 L13.1907301,19.3800224 L13.1907301,16.0015776 L9.81228532,16.0015776 L9.81228532,19.3800224 Z" id="Fill-8" fill="#184FA8"></path>
                <path d="M2.65384615,14.1538462 L7.96153846,14.1538462 L7.96153846,8.84615385 L2.65384615,8.84615385 L2.65384615,14.1538462 Z M3.61997762,13.1907301 L6.99540699,13.1907301 L6.99540699,9.81228532 L3.61997762,9.81228532 L3.61997762,13.1907301 Z" id="Fill-9" fill="#184FA8"></path>
                <path d="M8.84615385,14.1538462 L14.1538462,14.1538462 L14.1538462,8.84615385 L8.84615385,8.84615385 L8.84615385,14.1538462 Z M9.81228532,13.1907301 L13.1907301,13.1907301 L13.1907301,9.81228532 L9.81228532,9.81228532 L9.81228532,13.1907301 Z" id="Fill-10" fill="#184FA8"></path>
                <path d="M15.0384615,14.1538462 L20.3461538,14.1538462 L20.3461538,8.84615385 L15.0384615,8.84615385 L15.0384615,14.1538462 Z M16.0015776,13.1907301 L19.3800224,13.1907301 L19.3800224,9.81228532 L16.0015776,9.81228532 L16.0015776,13.1907301 Z" id="Fill-11" fill="#184FA8"></path>
                <path d="M2.65384615,7.96153846 L20.3461538,7.96153846 L20.3461538,2.65384615 L2.65384615,2.65384615 L2.65384615,7.96153846 Z M3.61131784,6.89867308 L19.3886822,6.89867308 L19.3886822,3.71671154 L3.61131784,3.71671154 L3.61131784,6.89867308 Z" id="Fill-12" fill="#184FA8"></path>
            </g>
        </g>
    </g>
</svg>