<?xml version="1.0" encoding="UTF-8"?>
<svg width="25px" height="23px" viewBox="0 0 25 23" version="1.1" xmlns="http://www.w3.org/2000/svg" xmlns:xlink="http://www.w3.org/1999/xlink">
    <!-- Generator: Sketch 51.1 (57501) - http://www.bohemiancoding.com/sketch -->
    <title>12</title>
    <desc>Created with Sketch.</desc>
    <defs>
        <polygon id="path-1" points="0 0 25 0 25 23 0 23"></polygon>
    </defs>
    <g id="Page-1" stroke="none" stroke-width="1" fill="none" fill-rule="evenodd">
        <g id="Artboard" transform="translate(-3192.000000, -683.000000)">
            <g id="12" transform="translate(3192.000000, 683.000000)">
                <mask id="mask-2" fill="white">
                    <use xlink:href="#path-1"></use>
                </mask>
                <g id="Clip-2"></g>
                <path d="M13.7942075,13.300435 C13.7942075,13.8696649 14.4784404,14.1955318 14.967242,13.8719023 L17.6851715,12.0717337 C18.1051082,11.7936911 18.1047609,11.2072146 17.6852211,10.9287991 L14.9672917,9.1285839 C14.4748186,8.80243736 13.7942075,9.13455028 13.7942075,9.7000512 L13.7942075,10.8010813 L0.744216815,10.8010813 C0.333210675,10.8010813 0,11.1141298 0,11.5002664 C0,11.886403 0.333210675,12.1994515 0.744216815,12.1994515 L13.7942075,12.1994515 L13.7942075,13.300435" id="Fill-1" fill="#184FA8" mask="url(#mask-2)"></path>
                <path d="M13.7989285,0 C9.66770804,0 6.03930201,2.30188554 4.09685398,5.74932308 C3.89795313,6.1023573 4.01543314,6.55409932 4.35928994,6.75830877 C4.70319468,6.96251822 5.14314532,6.84180425 5.34204617,6.48881925 C7.0316964,3.49016989 10.189607,1.47692466 13.7989285,1.47692466 C19.1820064,1.47692466 23.5614693,5.97327409 23.5614693,11.5000246 C23.5614693,17.0267751 19.1820064,21.5231246 13.7989285,21.5231246 C10.1874012,21.5231246 7.03049763,19.5079101 5.34199822,16.5110823 C5.14309737,16.1580481 4.70314673,16.0374818 4.35924198,16.2415928 C4.01538519,16.4458022 3.89785723,16.8975442 4.09680603,17.2505785 C6.03973357,20.6990498 9.66876296,23 13.7989285,23 C19.9897893,23.0000492 25,17.8566591 25,11.5000246 C25,5.14393166 19.9903168,0 13.7989285,0" id="Fill-3" fill="#184FA8" mask="url(#mask-2)"></path>
            </g>
        </g>
    </g>
</svg>