<?xml version="1.0" encoding="UTF-8"?>
<svg width="20px" height="20px" viewBox="0 0 20 20" version="1.1" xmlns="http://www.w3.org/2000/svg" xmlns:xlink="http://www.w3.org/1999/xlink">
    <!-- Generator: Sketch 51.1 (57501) - http://www.bohemiancoding.com/sketch -->
    <title>11</title>
    <desc>Created with Sketch.</desc>
    <defs></defs>
    <g id="Page-1" stroke="none" stroke-width="1" fill="none" fill-rule="evenodd">
        <g id="Artboard" transform="translate(-3194.000000, -734.000000)" fill="#184FA8" fill-rule="nonzero">
            <path d="M3194,742.321048 C3194,746.911548 3197.73464,750.642097 3202.32105,750.642097 C3204.43407,750.642097 3206.36691,749.847666 3207.83702,748.545455 L3213.14005,753.848485 C3213.23833,753.946765 3213.36527,753.995905 3213.49631,753.995905 C3213.62735,753.995905 3213.7543,753.946765 3213.85258,753.848485 C3214.04914,753.651925 3214.04914,753.336609 3213.85258,753.140049 L3208.54545,747.837019 C3209.84767,746.366912 3210.6421,744.438165 3210.6421,742.321048 C3210.6421,737.730549 3206.90745,734 3202.32105,734 C3197.73464,734 3194,737.730549 3194,742.321048 Z M3209.63882,742.321048 C3209.63882,746.354627 3206.35463,749.638821 3202.32105,749.638821 C3198.28747,749.638821 3195.00328,746.354627 3195.00328,742.321048 C3195.00328,738.287469 3198.28747,735.003276 3202.32105,735.003276 C3206.35463,735.003276 3209.63882,738.283374 3209.63882,742.321048 Z" id="11"></path>
        </g>
    </g>
</svg>