<?xml version="1.0" encoding="UTF-8"?>
<svg width="24px" height="24px" viewBox="0 0 24 24" version="1.1" xmlns="http://www.w3.org/2000/svg" xmlns:xlink="http://www.w3.org/1999/xlink">
    <!-- Generator: Sketch 51.1 (57501) - http://www.bohemiancoding.com/sketch -->
    <title>10</title>
    <desc>Created with Sketch.</desc>
    <defs></defs>
    <g id="Page-1" stroke="none" stroke-width="1" fill="none" fill-rule="evenodd">
        <g id="Artboard" transform="translate(-3192.000000, -781.000000)" fill="#184FA8" stroke="#FFFFFF" stroke-width="0.3">
            <g id="10" transform="translate(3192.000000, 781.000000)">
                <path d="M23,17.85 C23.469442,17.85 23.85,17.469442 23.85,17 C23.85,16.530558 23.469442,16.15 23,16.15 L21,16.15 L20.85,16 L20.85,8 C20.85,3.66456471 17.3354353,0.15 13,0.15 L11,0.15 C6.66456471,0.15 3.15,3.66456471 3.15,8 L3.15,16 L3,16.15 L1,16.15 C0.530557963,16.15 0.15,16.530558 0.15,17 C0.15,17.469442 0.530557963,17.85 1,17.85 L23,17.85 Z M19.15,9 L19.15,16 L19,16.15 L5,16.15 L4.85,16 L4.85,9 C4.85,5.05116404 8.05116404,1.85 12,1.85 C15.948836,1.85 19.15,5.05116404 19.15,9 Z M10.85,20.15 L9.15,20.15 L9.15,21 C9.15,22.5740115 10.4259885,23.85 12,23.85 C13.5740115,23.85 14.85,22.5740115 14.85,21 L14.85,20.15 L13.15,20.15 L13.15,21 C13.15,21.6351275 12.6351275,22.15 12,22.15 C11.3648725,22.15 10.85,21.6351275 10.85,21 L10.85,20.15 Z" id="bell"></path>
            </g>
        </g>
    </g>
</svg>