<?xml version="1.0" encoding="UTF-8"?>
<svg width="31px" height="31px" viewBox="0 0 31 31" version="1.1" xmlns="http://www.w3.org/2000/svg" xmlns:xlink="http://www.w3.org/1999/xlink">
    <!-- Generator: Sketch 51.1 (57501) - http://www.bohemiancoding.com/sketch -->
    <title>13</title>
    <desc>Created with Sketch.</desc>
    <defs>
        <polygon id="path-1" points="0.0036328125 0 31 0 31 31 0.0036328125 31"></polygon>
    </defs>
    <g id="Page-1" stroke="none" stroke-width="1" fill="none" fill-rule="evenodd">
        <g id="Artboard" transform="translate(-3188.000000, -833.000000)">
            <g id="13" transform="translate(3204.000000, 848.500000) scale(1, -1) translate(-3204.000000, -848.500000) translate(3188.000000, 833.000000)">
                <g id="Group-3">
                    <mask id="mask-2" fill="white">
                        <use xlink:href="#path-1"></use>
                    </mask>
                    <g id="Clip-2"></g>
                    <polyline id="Fill-1" fill="#F8C53B" mask="url(#mask-2)" points="28.8725039 15.5 31 19.6532129 27.0806191 22.1859492 26.8467871 26.8467871 22.1859492 27.0806191 19.6532129 31 15.5 28.8725039 11.3467871 31 8.81405078 27.0806191 4.15321289 26.8467871 3.91938086 22.1859492 0 19.6532129 2.12749609 15.5 0 11.3467871 3.91938086 8.81405078 4.15321289 4.15321289 8.81405078 3.91938086 11.3467871 0 15.5 2.12749609 19.6532129 0 22.1859492 3.91938086 26.8467871 4.15321289 27.0806191 8.81405078 31 11.3467871 28.8725039 15.5"></polyline>
                </g>
                <polyline id="Fill-4" fill="#F0A837" points="27.9411328 15.5 30 19.6532129 26.2070508 22.1859492 25.9807617 26.8467871 21.4702734 27.0806191 19.0192383 31 15 28.8725039 15 2.12749609 19.0192383 0 21.4702734 3.91938086 25.9807617 4.15321289 26.2070508 8.81405078 30 11.3467871 27.9411328 15.5"></polyline>
                <path d="M15.5,6 C20.7467041,6 25,10.2532959 25,15.5 C25,20.7467041 20.7467041,25 15.5,25 C10.2532959,25 6,20.7467041 6,15.5 C6,10.2532959 10.2532959,6 15.5,6" id="Fill-5" fill="#EB903D"></path>
                <path d="M24,15.5 C24,20.7468288 19.9706799,25 15,25 L15,6 C19.9706799,6 24,10.2531712 24,15.5" id="Fill-6" fill="#E57037"></path>
            </g>
        </g>
    </g>
</svg>