<?xml version="1.0" encoding="UTF-8"?>
<svg width="24px" height="24px" viewBox="0 0 24 24" version="1.1" xmlns="http://www.w3.org/2000/svg" xmlns:xlink="http://www.w3.org/1999/xlink">
    <!-- Generator: Sketch 51.1 (57501) - http://www.bohemiancoding.com/sketch -->
    <title>internet (1) copy</title>
    <desc>Created with Sketch.</desc>
    <defs></defs>
    <g id="Page-1" stroke="none" stroke-width="1" fill="none" fill-rule="evenodd">
        <g id="Uzstandart8" transform="translate(-417.000000, -663.000000)" fill-rule="nonzero">
            <g id="internet-(1)-copy" transform="translate(418.000000, 664.000000)">
                <path d="M11,0 C4.92486043,0 0,4.92483572 0,11 C0,17.0751643 4.92486043,22 11,22 C13.4393951,22 15.6928544,21.2054422 17.517011,19.8617075 C17.4199952,19.8551771 17.3253053,19.8126403 17.2552159,19.7343653 L15.4535577,17.7209549 L14.4832655,19.2101021 L13.6821359,15.1625272 L17.8023779,16.4442235 L16.0288539,17.2061742 L17.8305121,19.2196741 C17.9141094,19.3129778 17.9424671,19.4354892 17.9205055,19.5496812 C20.4089676,17.5330056 22,14.4525512 22,10.9999553 C22,4.92483572 17.0751396,0 11,0 Z" id="Shape" stroke="#184FA8" fill="#FFFFFF"></path>
                <g id="Group" transform="translate(2.838710, 9.225806)" fill="#184FA8">
                    <polygon id="Shape" points="1.37907645 2.50261113 1.47988418 3.0400553 1.4910602 3.04365828 1.61430937 2.50261113 2.42837084 0.0231619993 2.98851308 0.0231619993 3.80261925 2.50261113 3.93333401 3.09023963 3.94451003 3.09023963 4.07146965 2.50261113 4.72499873 0.0231619993 5.41214529 0.0231619993 4.23955702 3.90000886 3.67937008 3.90000886 2.88023978 1.51011946 2.70473152 0.818562212 2.6935555 0.818562212 2.52551283 1.51011946 1.74131369 3.90000886 1.17741631 3.90000886 0.00482804166 0.0231619993 0.695685039 0.0231619993"></polygon>
                    <polygon id="Shape" points="7.16736195 2.50261113 7.26816967 3.0400553 7.27934569 3.04365828 7.40259487 2.50261113 8.21665634 0.0231619993 8.77684328 0.0231619993 9.59094945 2.50261113 9.7215748 3.09023963 9.73284023 3.09023963 9.85979985 2.50261113 10.5133289 0.0231619993 11.2003861 0.0231619993 10.0278425 3.90000886 9.46765558 3.90000886 8.66848057 1.51011946 8.49297231 0.818562212 8.48179629 0.818562212 8.31370892 1.51011946 7.52950978 3.90000886 6.9656124 3.90000886 5.79302413 0.0231619993 6.48388113 0.0231619993"></polygon>
                    <polygon id="Shape" points="12.9556474 2.50261113 13.0564552 3.0400553 13.0676759 3.04365828 13.1909251 2.50261113 14.0050312 0.0231619993 14.5651735 0.0231619993 15.3792797 2.50261113 15.5099497 3.09023963 15.5211704 3.09023963 15.64813 2.50261113 16.3016591 0.0231619993 16.988761 0.0231619993 15.8162174 3.90000886 15.2560752 3.90000886 14.4569002 1.51011946 14.2813919 0.818562212 14.2701712 0.818562212 14.1021285 1.51011946 13.3178847 3.90000886 12.754032 3.90000886 11.5814437 0.0231619993 12.2723007 0.0231619993"></polygon>
                </g>
            </g>
        </g>
    </g>
</svg>