<?xml version="1.0" encoding="UTF-8"?>
<svg width="32px" height="37px" viewBox="0 0 32 37" version="1.1" xmlns="http://www.w3.org/2000/svg" xmlns:xlink="http://www.w3.org/1999/xlink">
    <!-- Generator: Sketch 51.1 (57501) - http://www.bohemiancoding.com/sketch -->
    <title>Group 19</title>
    <desc>Created with Sketch.</desc>
    <defs></defs>
    <g id="Page-1" stroke="none" stroke-width="1" fill="none" fill-rule="evenodd">
        <g id="Uzstandart6" transform="translate(-928.000000, -627.000000)">
            <g id="Group-28" transform="translate(859.000000, 610.000000)">
                <g id="Group-19" transform="translate(69.000000, 17.000000)">
                    <g id="docx-file-format-symbol-copy-7" fill="#FED75A" fill-rule="nonzero">
                        <path d="M29.9720823,12.9133169 L29.1051852,12.9133169 L29.1051852,8.73060082 C29.1051852,8.70432922 29.1011029,8.67825514 29.0976132,8.65158848 C29.0962305,8.48553086 29.0432922,8.32237037 28.9295802,8.19331687 L21.9691852,0.241975309 C21.9670123,0.239934156 21.9649712,0.239209877 21.9635885,0.237168724 C21.922107,0.190814815 21.8737778,0.152098765 21.8224856,0.11891358 C21.8074074,0.108576132 21.7921317,0.100082305 21.7762634,0.0913251029 C21.7320165,0.0672921811 21.6849383,0.0470781893 21.6366091,0.032526749 C21.6234403,0.0291028807 21.6116543,0.0237037037 21.5986173,0.0201481481 C21.5460082,0.00776954733 21.4914239,0 21.4361811,0 L4.32967901,0 C3.54857613,0 2.91397531,0.635325103 2.91397531,1.41576955 L2.91397531,12.9129218 L2.04720988,12.9129218 C0.929777778,12.9129218 0.0237037037,13.8186667 0.0237037037,14.9362963 L0.0237037037,25.4587654 C0.0237037037,26.5758683 0.929777778,27.482535 2.04720988,27.482535 L2.91397531,27.482535 L2.91397531,34.6857613 C2.91397531,35.4662716 3.54857613,36.101465 4.32967901,36.101465 L27.6894156,36.101465 C28.4698601,36.101465 29.1051193,35.4662716 29.1051193,34.6857613 L29.1051193,27.4826008 L29.9720165,27.4826008 C31.0891193,27.4826008 31.9953251,26.5763292 31.9953251,25.4591605 L31.9953251,14.9366914 C31.9953909,13.8190617 31.0891852,12.9133169 29.9720823,12.9133169 Z M4.32967901,1.41609877 L20.7282963,1.41609877 L20.7282963,8.65929218 C20.7282963,9.05040329 21.045465,9.36717695 21.4361811,9.36717695 L27.6894815,9.36717695 L27.6894815,12.9135802 L4.32967901,12.9135802 L4.32967901,1.41609877 Z M27.6894815,34.3024198 L4.32967901,34.3024198 L4.32967901,27.4826008 L27.6894815,27.4826008 L27.6894815,34.3024198 Z" id="Shape"></path>
                    </g>
                    <path d="M10.925,16.7 C12.167,16.7 13.13,17.663 13.13,18.86 C13.13,20.057 12.167,21.02 10.925,21.02 L9.98,21.02 L9.98,23 L8.54,23 L8.54,16.7 L10.925,16.7 Z M10.925,19.67 C11.366,19.67 11.69,19.319 11.69,18.86 C11.69,18.401 11.366,18.05 10.925,18.05 L9.98,18.05 L9.98,19.67 L10.925,19.67 Z M16.87,16.7 C18.607,16.7 19.93,18.068 19.93,19.85 C19.93,21.632 18.607,23 16.87,23 L14.35,23 L14.35,16.7 L16.87,16.7 Z M16.87,21.614 C17.86,21.614 18.544,20.93 18.544,19.85 C18.544,18.77 17.86,18.086 16.87,18.086 L15.79,18.086 L15.79,21.614 L16.87,21.614 Z M25.065,18.086 L22.68,18.086 L22.68,19.301 L25.02,19.301 L25.02,20.687 L22.68,20.687 L22.68,23 L21.24,23 L21.24,16.7 L25.065,16.7 L25.065,18.086 Z" id="pdf" fill="#FFFFFF"></path>
                </g>
            </g>
        </g>
    </g>
</svg>