<?xml version="1.0" encoding="UTF-8"?>
<svg width="24px" height="24px" viewBox="0 0 24 24" version="1.1" xmlns="http://www.w3.org/2000/svg" xmlns:xlink="http://www.w3.org/1999/xlink">
    <!-- Generator: Sketch 51.1 (57501) - http://www.bohemiancoding.com/sketch -->
    <title>Group 13 Copy</title>
    <desc>Created with Sketch.</desc>
    <defs></defs>
    <g id="Page-1" stroke="none" stroke-width="1" fill="none" fill-rule="evenodd">
        <g id="Uzstandart8" transform="translate(-417.000000, -541.000000)">
            <g id="Group-13-Copy" transform="translate(418.000000, 542.000000)">
                <circle id="Oval-2" stroke="#184FA8" fill="#FFFFFF" cx="11" cy="11" r="11"></circle>
                <g id="telephone-(1)" transform="translate(5.500000, 5.500000)" fill="#184FA8" fill-rule="nonzero">
                    <path d="M2.22910047,7.31205968 C3.31816979,8.60899295 4.6291713,9.63012847 6.12549762,10.352673 C6.69519985,10.6216328 7.45709078,10.9407377 8.30592422,10.9954414 C8.35854731,10.9977207 8.40888245,11 8.46150555,11 C9.03120777,11 9.48879992,10.8039785 9.86173752,10.4005387 C9.86402548,10.3982594 9.86860141,10.3937008 9.87088937,10.3891421 C10.0035911,10.2295897 10.1545965,10.0859925 10.3124658,9.93327808 C10.4199999,9.83070866 10.5298221,9.72358061 10.6350683,9.61417323 C11.1224039,9.10816411 11.1224039,8.46539577 10.6304923,7.9753419 L9.25542793,6.60547037 C9.02205593,6.36386241 8.74292472,6.23622047 8.45006574,6.23622047 C8.15720677,6.23622047 7.8757876,6.36386241 7.63555172,6.60319105 L6.81646177,7.41918773 C6.74095906,7.37588065 6.6631684,7.3371322 6.58995366,7.30066308 C6.49843523,7.25507667 6.41378068,7.21176958 6.33827797,7.16390385 C5.59240277,6.69208454 4.91516639,6.07666805 4.2676735,5.28574389 C3.94049511,4.8731869 3.72085088,4.52673021 3.56755751,4.17343556 C3.78262582,3.97969333 3.98396636,3.77683382 4.17844303,3.57853295 C4.24708185,3.50787402 4.31800863,3.43721508 4.38893542,3.36655615 C4.63603518,3.12038956 4.7687369,2.83547451 4.7687369,2.54600083 C4.7687369,2.25652714 4.63832314,1.9716121 4.38893542,1.7254455 L3.70712311,1.04620804 C3.62704449,0.966431828 3.55154178,0.888934936 3.47375112,0.809158724 C3.32274571,0.65416494 3.16487642,0.494612516 3.00929509,0.351015334 C2.77363513,0.120803978 2.49679188,0 2.2039329,0 C1.91336189,0 1.63423068,0.120803978 1.38941888,0.353294654 L0.533721558,1.20576046 C0.222558896,1.51574803 0.0463859188,1.89183589 0.00977854682,2.32718608 C-0.0336927074,2.87194364 0.0669775655,3.45089101 0.327805091,4.15064235 C0.728198221,5.23331952 1.33221986,6.23849979 2.22910047,7.31205968 Z M0.568040969,2.3750518 C0.595496498,2.0719022 0.712182496,1.81889764 0.931826728,1.60008288 L1.78294813,0.752175715 C1.91564985,0.624533775 2.06207934,0.558433485 2.2039329,0.558433485 C2.34349851,0.558433485 2.48535208,0.624533775 2.61576584,0.756734356 C2.76905921,0.898052217 2.91320073,1.04620804 3.06878207,1.20348114 C3.14657273,1.28325736 3.22665136,1.36303357 3.30672998,1.4450891 L3.98854229,2.12432656 C4.13039585,2.26564443 4.2036106,2.40924161 4.2036106,2.55055947 C4.2036106,2.69187733 4.13039585,2.83547451 3.98854229,2.97679237 C3.9176155,3.04745131 3.84668872,3.12038956 3.77576194,3.19104849 C3.56298159,3.4053046 3.363929,3.60816411 3.14428477,3.80190634 C3.13970885,3.80646498 3.13742089,3.8087443 3.13284497,3.81330294 C2.94294422,4.00248653 2.97268771,4.18255284 3.01844693,4.31931206 C3.02073489,4.32615002 3.02302285,4.33070866 3.02531081,4.33754662 C3.20148379,4.75922089 3.44629559,5.16038127 3.82838503,5.63903854 C4.51477326,6.48238707 5.23776885,7.13655201 6.03397919,7.64028181 C6.13236151,7.70410278 6.2376077,7.75424782 6.33599001,7.80439287 C6.42750844,7.84997928 6.51216299,7.89328637 6.58766569,7.94115209 C6.59681754,7.94571073 6.60368142,7.95026937 6.61283326,7.95482801 C6.68833597,7.99357646 6.76155071,8.01181102 6.83476546,8.01181102 C7.01780232,8.01181102 7.13677627,7.89556569 7.17567161,7.85681724 L8.03136893,7.00435143 C8.16407065,6.87215085 8.30821218,6.80149192 8.45006574,6.80149192 C8.62395076,6.80149192 8.76580433,6.90861998 8.85503479,7.00435143 L10.2346751,8.37650228 C10.5092304,8.65002072 10.5069425,8.94633237 10.2278112,9.23580605 C10.1317169,9.33837547 10.0310466,9.43638624 9.92351246,9.53895566 C9.76335521,9.69394944 9.59633408,9.85350186 9.44532867,10.0335682 C9.18221318,10.3162039 8.86876256,10.4484045 8.46379351,10.4484045 C8.42489817,10.4484045 8.38371488,10.4461252 8.34481955,10.4438458 C7.59436842,10.3959801 6.8965404,10.1042271 6.37259738,9.85578119 C4.9494858,9.16970576 3.70025923,8.19643597 2.66381301,6.96104434 C1.81040365,5.93762951 1.23612551,4.9848736 0.856324023,3.96373809 C0.620664066,3.33692499 0.531433597,2.83319519 0.568040969,2.3750518 Z" id="Shape"></path>
                </g>
            </g>
        </g>
    </g>
</svg>