<?xml version="1.0" encoding="UTF-8"?>
<svg width="70px" height="70px" viewBox="0 0 70 70" version="1.1" xmlns="http://www.w3.org/2000/svg" xmlns:xlink="http://www.w3.org/1999/xlink">
    <!-- Generator: Sketch 51.1 (57501) - http://www.bohemiancoding.com/sketch -->
    <title>Group 7</title>
    <desc>Created with Sketch.</desc>
    <defs></defs>
    <g id="Page-1" stroke="none" stroke-width="1" fill="none" fill-rule="evenodd">
        <g id="Uzstandart26" transform="translate(-226.000000, -445.000000)">
            <g id="Group-14" transform="translate(218.000000, 437.000000)">
                <g id="Group-7" transform="translate(8.000000, 8.000000)">
                    <circle id="Oval-3" fill="#FFFFFF" cx="34.6160714" cy="34.6160714" r="34.5535714"></circle>
                    <path d="M45.1167474,31.1817526 C44.7103859,30.9284626 44.1760797,31.0523638 43.9229341,31.458581 C43.6697884,31.8647981 43.7936897,32.3991043 44.1997624,32.6522499 C45.1447624,33.2415752 45.7088165,34.2582011 45.7088165,35.3718685 C45.7088165,36.485536 45.1447624,37.5021618 44.1997624,38.0914871 L29.9876505,46.9530278 C28.9850321,47.5781661 27.7697021,47.6089248 26.7367582,47.0357731 C25.7036699,46.462477 25.0869073,45.4148036 25.0869073,44.2334092 L25.0869073,26.5101834 C25.0869073,25.3287891 25.7036699,24.2811157 26.7367582,23.7078195 C27.7697021,23.1346678 28.9850321,23.1654265 29.9876505,23.7905648 L38.2610211,28.9492191 C38.6672382,29.2022203 39.2015445,29.0784634 39.4548345,28.6723907 C39.7079801,28.266318 39.5840788,27.7318673 39.1780061,27.4787217 L30.9046355,22.3202119 C29.3600573,21.357161 27.4878194,21.3093623 25.8958757,22.1927004 C24.3043653,23.0758941 23.3541667,24.6899321 23.3541667,26.5101834 L23.3541667,44.2332648 C23.3541667,46.0535161 24.3043653,47.6675541 25.8960202,48.5507478 C26.6541573,48.9714056 27.4756892,49.1809403 28.2954883,49.1809403 C29.1967329,49.1809403 30.0958114,48.9276503 30.9046355,48.4232364 L45.1167474,39.5616957 C46.5726596,38.6538083 47.4418459,37.0875691 47.4418459,35.3717241 C47.4418459,33.6558791 46.5726596,32.0896399 45.1167474,31.1817526 Z" id="Shape" stroke="#184FA8" stroke-width="3" fill="#184FA8" fill-rule="nonzero"></path>
                </g>
            </g>
        </g>
    </g>
</svg>