<?xml version="1.0" encoding="UTF-8"?>
<svg width="32px" height="37px" viewBox="0 0 32 37" version="1.1" xmlns="http://www.w3.org/2000/svg" xmlns:xlink="http://www.w3.org/1999/xlink">
    <!-- Generator: Sketch 51.1 (57501) - http://www.bohemiancoding.com/sketch -->
    <title>Group 19 Copy</title>
    <desc>Created with Sketch.</desc>
    <defs></defs>
    <g id="Page-1" stroke="none" stroke-width="1" fill="none" fill-rule="evenodd">
        <g id="Uzstandart6" transform="translate(-928.000000, -689.000000)">
            <g id="Group-28" transform="translate(859.000000, 610.000000)">
                <g id="Group-19-Copy" transform="translate(69.000000, 79.000000)">
                    <g id="docx-file-format-symbol-copy-7" fill="#E91E64" fill-rule="nonzero">
                        <path d="M29.9720823,12.9133169 L29.1051852,12.9133169 L29.1051852,8.73060082 C29.1051852,8.70432922 29.1011029,8.67825514 29.0976132,8.65158848 C29.0962305,8.48553086 29.0432922,8.32237037 28.9295802,8.19331687 L21.9691852,0.241975309 C21.9670123,0.239934156 21.9649712,0.239209877 21.9635885,0.237168724 C21.922107,0.190814815 21.8737778,0.152098765 21.8224856,0.11891358 C21.8074074,0.108576132 21.7921317,0.100082305 21.7762634,0.0913251029 C21.7320165,0.0672921811 21.6849383,0.0470781893 21.6366091,0.032526749 C21.6234403,0.0291028807 21.6116543,0.0237037037 21.5986173,0.0201481481 C21.5460082,0.00776954733 21.4914239,0 21.4361811,0 L4.32967901,0 C3.54857613,0 2.91397531,0.635325103 2.91397531,1.41576955 L2.91397531,12.9129218 L2.04720988,12.9129218 C0.929777778,12.9129218 0.0237037037,13.8186667 0.0237037037,14.9362963 L0.0237037037,25.4587654 C0.0237037037,26.5758683 0.929777778,27.482535 2.04720988,27.482535 L2.91397531,27.482535 L2.91397531,34.6857613 C2.91397531,35.4662716 3.54857613,36.101465 4.32967901,36.101465 L27.6894156,36.101465 C28.4698601,36.101465 29.1051193,35.4662716 29.1051193,34.6857613 L29.1051193,27.4826008 L29.9720165,27.4826008 C31.0891193,27.4826008 31.9953251,26.5763292 31.9953251,25.4591605 L31.9953251,14.9366914 C31.9953909,13.8190617 31.0891852,12.9133169 29.9720823,12.9133169 Z M4.32967901,1.41609877 L20.7282963,1.41609877 L20.7282963,8.65929218 C20.7282963,9.05040329 21.045465,9.36717695 21.4361811,9.36717695 L27.6894815,9.36717695 L27.6894815,12.9135802 L4.32967901,12.9135802 L4.32967901,1.41609877 Z M27.6894815,34.3024198 L4.32967901,34.3024198 L4.32967901,27.4826008 L27.6894815,27.4826008 L27.6894815,34.3024198 Z" id="Shape"></path>
                        <path d="M7.29079835,19.5079506 C7.30166255,17.9363292 6.38123457,17.1050535 4.91055144,17.1050535 C4.52819753,17.1050535 4.28161317,17.1388971 4.13544033,17.1726749 L4.13544033,22.1241152 C4.28200823,22.1576296 4.5177284,22.1576296 4.73112757,22.1576296 C6.28069136,22.1694156 7.29079835,21.3164115 7.29079835,19.5079506 Z" id="Shape"></path>
                        <path d="M11.6940905,19.6538601 C11.6940905,21.1363292 12.3903868,22.1804115 13.5356708,22.1804115 C14.6923457,22.1804115 15.3540741,21.0806255 15.3540741,19.6095473 C15.3540741,18.2504691 14.7032099,17.0826667 13.5235556,17.0826667 C12.3672099,17.0829959 11.6940905,18.1835062 11.6940905,19.6538601 Z" id="Shape"></path>
                    </g>
                    <path d="M6.925,16.7 C8.167,16.7 9.13,17.663 9.13,18.86 C9.13,20.057 8.167,21.02 6.925,21.02 L5.98,21.02 L5.98,23 L4.54,23 L4.54,16.7 L6.925,16.7 Z M6.925,19.67 C7.366,19.67 7.69,19.319 7.69,18.86 C7.69,18.401 7.366,18.05 6.925,18.05 L5.98,18.05 L5.98,19.67 L6.925,19.67 Z M12.735,16.7 C13.977,16.7 14.94,17.663 14.94,18.86 C14.94,20.057 13.977,21.02 12.735,21.02 L11.79,21.02 L11.79,23 L10.35,23 L10.35,16.7 L12.735,16.7 Z M12.735,19.67 C13.176,19.67 13.5,19.319 13.5,18.86 C13.5,18.401 13.176,18.05 12.735,18.05 L11.79,18.05 L11.79,19.67 L12.735,19.67 Z M20.3,16.7 L20.3,18.086 L18.68,18.086 L18.68,23 L17.24,23 L17.24,18.086 L15.62,18.086 L15.62,16.7 L20.3,16.7 Z M26.38,23 L24.742,23 L23.68,21.182 L22.618,23 L20.98,23 L22.861,19.769 L21.07,16.7 L22.708,16.7 L23.68,18.365 L24.652,16.7 L26.29,16.7 L24.499,19.769 L26.38,23 Z" id="pptx" fill="#FFFFFF"></path>
                </g>
            </g>
        </g>
    </g>
</svg>