<?xml version="1.0" encoding="UTF-8"?>
<svg width="22px" height="22px" viewBox="0 0 22 22" version="1.1" xmlns="http://www.w3.org/2000/svg" xmlns:xlink="http://www.w3.org/1999/xlink">
    <!-- Generator: Sketch 51.1 (57501) - http://www.bohemiancoding.com/sketch -->
    <title>alarm-clock (1) copy</title>
    <desc>Created with Sketch.</desc>
    <defs></defs>
    <g id="Page-1" stroke="none" stroke-width="1" fill="none" fill-rule="evenodd">
        <g id="Uzstandart8" transform="translate(-418.000000, -603.000000)" fill="#184FA8" fill-rule="nonzero">
            <g id="alarm-clock-(1)-copy" transform="translate(418.000000, 603.000000)">
                <path d="M14.9435932,10.8706102 L12.2804746,10.8706102 C12.1447458,10.3489492 11.7364407,9.94064407 11.2147797,9.80491525 L11.2147797,6.02315254 C11.2147797,5.81694915 11.0477288,5.65027119 10.8418983,5.65027119 C10.6360678,5.65027119 10.4690169,5.81694915 10.4690169,6.02315254 L10.4690169,9.80491525 C9.82766102,9.97159322 9.35037288,10.5503051 9.35037288,11.2434915 C9.35037288,12.0660678 10.019322,12.7350169 10.8418983,12.7350169 C11.5347119,12.7350169 12.1137966,12.2577288 12.2804746,11.6163729 L14.9435932,11.6163729 C15.1494237,11.6163729 15.3164746,11.4496949 15.3164746,11.2434915 C15.3164746,11.0372881 15.1497966,10.8706102 14.9435932,10.8706102 Z M10.8418983,11.9892542 C10.4306102,11.9892542 10.0961356,11.6547797 10.0961356,11.2434915 C10.0961356,10.8322034 10.4306102,10.4977288 10.8418983,10.4977288 C11.2531864,10.4977288 11.587661,10.8322034 11.587661,11.2434915 C11.587661,11.6547797 11.2531864,11.9892542 10.8418983,11.9892542 Z" id="Shape"></path>
                <path d="M18.7141695,3.64081356 L20.2414915,5.16813559 C20.3115932,5.23823729 20.4063051,5.27738983 20.5051186,5.27738983 C20.6039322,5.27738983 20.6990169,5.23823729 20.7687458,5.16813559 C21.949661,3.98759322 21.949661,2.06613559 20.7687458,0.88559322 C19.5878305,-0.294949153 17.6667458,-0.294949153 16.4862034,0.88559322 C16.4161017,0.955694915 16.3769492,1.0500339 16.3769492,1.14922034 C16.3769492,1.24840678 16.4161017,1.34311864 16.4862034,1.41284746 L18.1869153,3.11355932 L17.5533898,3.74708475 C15.7710169,2.14966102 13.4185085,1.17569492 10.8422712,1.17569492 C8.2660339,1.17569492 5.91352542,2.14966102 4.13115254,3.74708475 L3.49725424,3.11355932 L5.1979661,1.41284746 C5.2680678,1.34274576 5.30722034,1.24840678 5.30722034,1.14922034 C5.30722034,1.0500339 5.2680678,0.955322034 5.1979661,0.88559322 C4.01742373,-0.294949153 2.09633898,-0.294949153 0.915423729,0.88559322 C-0.265491525,2.06613559 -0.265491525,3.98759322 0.915423729,5.16813559 C0.985525424,5.23823729 1.08023729,5.27738983 1.17905085,5.27738983 C1.27786441,5.27738983 1.37294915,5.23823729 1.44267797,5.16813559 L2.97,3.64081356 L3.59494915,4.26576271 C1.85023729,6.07684746 0.774101695,8.53637288 0.774101695,11.2434915 C0.774101695,14.9342712 2.77162712,18.165661 5.74125424,19.9185763 L4.61216949,21.047661 C4.46637288,21.1934576 4.46637288,21.4291186 4.61216949,21.5749153 C4.68488136,21.6476271 4.78033898,21.6841695 4.87579661,21.6841695 C4.97125424,21.6841695 5.06671186,21.6476271 5.13942373,21.5749153 L6.42586441,20.2884746 C7.7600339,20.9425085 9.25864407,21.3112881 10.8418983,21.3112881 C12.4251525,21.3112881 13.9237627,20.9425085 15.2579322,20.2884746 L16.5443729,21.5749153 C16.6170847,21.6476271 16.7125424,21.6841695 16.808,21.6841695 C16.9034576,21.6841695 16.9989153,21.6476271 17.0716271,21.5749153 C17.2174237,21.4291186 17.2174237,21.1934576 17.0716271,21.047661 L15.9425424,19.9185763 C18.9121695,18.165661 20.9096949,14.9342712 20.9096949,11.2434915 C20.9096949,8.53637288 19.8335593,6.07684746 18.0888475,4.26576271 L18.7141695,3.64081356 Z M20.2411186,1.41284746 C21.041322,2.21305085 21.1218644,3.46444068 20.4831186,4.356 L17.298339,1.17084746 C18.1895254,0.532101695 19.4405424,0.612271186 20.2411186,1.41284746 Z M1.20067797,4.35562712 C0.561932203,3.46444068 0.642474576,2.21305085 1.44267797,1.41284746 C2.24288136,0.612644068 3.49427119,0.532474576 4.38545763,1.17084746 L1.20067797,4.35562712 Z M10.8418983,20.5655254 C5.70172881,20.5655254 1.51986441,16.383661 1.51986441,11.2434915 C1.51986441,6.10332203 5.70172881,1.92145763 10.8418983,1.92145763 C15.9820678,1.92145763 20.1639322,6.10332203 20.1639322,11.2434915 C20.1639322,16.383661 15.9824407,20.5655254 10.8418983,20.5655254 Z" id="Shape"></path>
                <path d="M10.8418983,3.74074576 C11.0477288,3.74074576 11.2147797,3.5740678 11.2147797,3.36786441 L11.2147797,2.99498305 C11.2147797,2.78877966 11.0477288,2.62210169 10.8418983,2.62210169 C10.6360678,2.62210169 10.4690169,2.78877966 10.4690169,2.99498305 L10.4690169,3.36786441 C10.4690169,3.57369492 10.6360678,3.74074576 10.8418983,3.74074576 Z" id="Shape"></path>
                <path d="M10.8418983,18.656 C10.6360678,18.656 10.4690169,18.822678 10.4690169,19.0288814 L10.4690169,19.4017627 C10.4690169,19.6079661 10.6360678,19.7746441 10.8418983,19.7746441 C11.0477288,19.7746441 11.2147797,19.6079661 11.2147797,19.4017627 L11.2147797,19.0288814 C11.2147797,18.822678 11.0481017,18.656 10.8418983,18.656 Z" id="Shape"></path>
                <path d="M18.6724068,11.5712542 L19.0452881,11.5712542 C19.2511186,11.5712542 19.4181695,11.4045763 19.4181695,11.1983729 C19.4181695,10.9921695 19.2511186,10.8254915 19.0452881,10.8254915 L18.6724068,10.8254915 C18.4665763,10.8254915 18.2995254,10.9921695 18.2995254,11.1983729 C18.2995254,11.4045763 18.4665763,11.5712542 18.6724068,11.5712542 Z" id="Shape"></path>
                <path d="M3.01138983,10.8254915 L2.63850847,10.8254915 C2.43267797,10.8254915 2.26562712,10.9921695 2.26562712,11.1983729 C2.26562712,11.4045763 2.43267797,11.5712542 2.63850847,11.5712542 L3.01138983,11.5712542 C3.21722034,11.5712542 3.38427119,11.4045763 3.38427119,11.1983729 C3.38427119,10.9921695 3.21759322,10.8254915 3.01138983,10.8254915 Z" id="Shape"></path>
                <path d="M16.3791864,5.13383051 L16.1155593,5.39745763 C15.9697627,5.54325424 15.9697627,5.77891525 16.1155593,5.92471186 C16.1882712,5.99742373 16.2837288,6.0339661 16.3791864,6.0339661 C16.4746441,6.0339661 16.5701017,5.99742373 16.6428136,5.92471186 L16.9064407,5.66108475 C17.0522373,5.51528814 17.0522373,5.27962712 16.9064407,5.13383051 C16.7606441,4.9880339 16.5246102,4.9880339 16.3791864,5.13383051 Z" id="Shape"></path>
                <path d="M5.04135593,16.471661 L4.77772881,16.7352881 C4.6319322,16.8810847 4.6319322,17.1167458 4.77772881,17.2625424 C4.85044068,17.3352542 4.94589831,17.3717966 5.04135593,17.3717966 C5.13681356,17.3717966 5.23227119,17.3352542 5.30498305,17.2625424 L5.56861017,16.9989153 C5.71440678,16.8531186 5.71440678,16.6174576 5.56861017,16.471661 C5.42281356,16.3258644 5.18715254,16.3262373 5.04135593,16.471661 Z" id="Shape"></path>
                <path d="M16.6428136,16.471661 C16.4970169,16.3258644 16.2613559,16.3258644 16.1155593,16.471661 C15.9697627,16.6174576 15.9697627,16.8531186 16.1155593,16.9989153 L16.3791864,17.2625424 C16.4518983,17.3352542 16.5473559,17.3717966 16.6428136,17.3717966 C16.7382712,17.3717966 16.8337288,17.3352542 16.9064407,17.2625424 C17.0522373,17.1167458 17.0522373,16.8810847 16.9064407,16.7352881 L16.6428136,16.471661 Z" id="Shape"></path>
                <path d="M5.30498305,5.13383051 C5.15918644,4.9880339 4.92352542,4.9880339 4.77772881,5.13383051 C4.6319322,5.27962712 4.6319322,5.51528814 4.77772881,5.66108475 L5.04135593,5.92471186 C5.1140678,5.99742373 5.20952542,6.0339661 5.30498305,6.0339661 C5.40044068,6.0339661 5.49589831,5.99742373 5.56861017,5.92471186 C5.71440678,5.77891525 5.71440678,5.54325424 5.56861017,5.39745763 L5.30498305,5.13383051 Z" id="Shape"></path>
            </g>
        </g>
    </g>
</svg>