<?xml version="1.0" encoding="UTF-8"?>
<svg width="24px" height="23px" viewBox="0 0 24 23" version="1.1" xmlns="http://www.w3.org/2000/svg" xmlns:xlink="http://www.w3.org/1999/xlink">
    <!-- Generator: Sketch 51.1 (57501) - http://www.bohemiancoding.com/sketch -->
    <title>17</title>
    <desc>Created with Sketch.</desc>
    <defs></defs>
    <g id="Page-1" stroke="none" stroke-width="1" fill="none" fill-rule="evenodd">
        <g id="Artboard" transform="translate(-3467.000000, -882.000000)" fill="#7E879E">
            <g id="17" transform="translate(3467.000000, 882.000000)">
                <path d="M21.629,0.293617021 L6.371,0.293617021 C5.0645,0.293617021 4,1.33546809 4,2.61417021 L4,5.77397872 L2.371,5.77397872 C1.0645,5.77397872 0,6.81582979 0,8.09453191 L0,16.3715957 C0,17.6527447 1.0645,18.6945957 2.371,18.6945957 L4.801,18.6945957 L4.801,22.6094894 C4.801,22.77 4.9025,22.9153404 5.0565,22.9745532 C5.1035,22.9916809 5.1525,22.9990213 5.199,22.9990213 C5.3105,22.9990213 5.418,22.9554681 5.496,22.8712979 L9.377,18.6945957 L17.629,18.6945957 C18.9355,18.6945957 20,17.6527447 20,16.3715957 L20,13.2117872 L21.629,13.2117872 C22.9355,13.2117872 24,12.1718936 24,10.891234 L24,2.61417021 C24,1.33546809 22.9355,0.293617021 21.629,0.293617021 L21.629,0.293617021 Z M19.199,16.3715957 C19.199,17.2206383 18.494,17.9106383 17.629,17.9106383 L9.199,17.9106383 C9.088,17.9106383 8.9805,17.9566383 8.9045,18.0388511 L5.5995,21.5960213 L5.5995,18.302617 C5.5995,18.0863191 5.422,17.9106383 5.199,17.9106383 L2.371,17.9106383 C1.506,17.9106383 0.801,17.2206383 0.801,16.3715957 L0.801,8.09453191 C0.801,7.24793617 1.506,6.55793617 2.371,6.55793617 L17.629,6.55793617 C17.953,6.55793617 18.256,6.65531915 18.506,6.81974468 C18.924,7.0967234 19.199,7.56504255 19.199,8.09648936 L19.199,16.3715957 Z M23.199,10.891234 C23.199,11.7402766 22.494,12.4302766 21.629,12.4302766 L20,12.4302766 L20,8.09648936 C20,7.05659574 19.297,6.17378723 18.332,5.87919149 C18.258,5.85619149 18.1835,5.83710638 18.1055,5.82193617 C17.951,5.79110638 17.791,5.77397872 17.629,5.77397872 L4.801,5.77397872 L4.801,2.61417021 C4.801,1.76757447 5.506,1.07757447 6.371,1.07757447 L21.629,1.07757447 C22.494,1.07757447 23.199,1.76757447 23.199,2.61417021 L23.199,10.891234 Z" id="Fill-1"></path>
                <path d="M4.801,10.4782128 L10.4005,10.4782128 C10.621,10.4782128 10.801,10.3025319 10.801,10.0867234 C10.801,9.87042553 10.621,9.69474468 10.4005,9.69474468 L4.801,9.69474468 C4.578,9.69474468 4.4005,9.87042553 4.4005,10.0867234 C4.4005,10.3025319 4.578,10.4782128 4.801,10.4782128 L4.801,10.4782128 Z" id="Fill-2"></path>
                <path d="M15.5995,12.0441702 L4.801,12.0441702 C4.578,12.0441702 4.4005,12.2198511 4.4005,12.4356596 C4.4005,12.6519574 4.578,12.8276383 4.801,12.8276383 L15.5995,12.8276383 C15.8205,12.8276383 16,12.6519574 16,12.4356596 C16,12.2198511 15.8205,12.0441702 15.5995,12.0441702 L15.5995,12.0441702 Z" id="Fill-3"></path>
                <path d="M15.5995,14.3931064 L4.801,14.3931064 C4.578,14.3931064 4.4005,14.5692766 4.4005,14.7850851 C4.4005,15.001383 4.578,15.1751064 4.801,15.1751064 L15.5995,15.1751064 C15.8205,15.1751064 16,15.001383 16,14.7850851 C16,14.5692766 15.8205,14.3931064 15.5995,14.3931064 L15.5995,14.3931064 Z" id="Fill-4"></path>
            </g>
        </g>
    </g>
</svg>