<?xml version="1.0" encoding="UTF-8"?>
<svg width="25px" height="27px" viewBox="0 0 25 27" version="1.1" xmlns="http://www.w3.org/2000/svg" xmlns:xlink="http://www.w3.org/1999/xlink">
    <!-- Generator: Sketch 51.1 (57501) - http://www.bohemiancoding.com/sketch -->
    <title>19</title>
    <desc>Created with Sketch.</desc>
    <defs></defs>
    <g id="Page-1" stroke="none" stroke-width="1" fill="none" fill-rule="evenodd">
        <g id="Artboard" transform="translate(-3466.000000, -791.000000)" fill="#A3ADBD">
            <path d="M3487.59362,801.266851 L3487.59362,800.228757 C3487.59362,797.744381 3486.72822,795.435632 3485.15902,793.72254 C3483.55087,791.964425 3481.33964,791 3478.92711,791 L3478.08405,791 C3475.67158,791 3473.46028,791.964425 3471.85213,793.72254 C3470.28293,795.435632 3469.41753,797.744381 3469.41753,800.228757 L3469.41753,801.266851 C3467.51329,801.397313 3466,803.008091 3466,804.976505 L3466,806.598699 C3466,808.646311 3467.64172,810.313883 3469.65744,810.313883 L3471.71825,810.313883 C3472.08659,810.313883 3472.3882,810.007581 3472.3882,809.633425 L3472.3882,801.935964 C3472.3882,801.561808 3472.08659,801.255506 3471.71825,801.255506 L3470.75765,801.255506 L3470.75765,800.228757 C3470.75765,795.741933 3473.90715,792.36127 3478.07832,792.36127 L3478.92166,792.36127 C3483.09856,792.36127 3486.24234,795.741933 3486.24234,800.228757 L3486.24234,801.255506 L3485.28173,801.255506 C3484.91339,801.255506 3484.61185,801.561808 3484.61185,801.935964 L3484.61185,809.627611 C3484.61185,810.002051 3484.91339,810.308353 3485.28173,810.308353 L3486.22,810.308353 C3485.94652,813.859042 3483.53971,814.68166 3482.42289,814.868916 C3482.11562,813.910305 3481.22782,813.218148 3480.18353,813.218148 L3478.5083,813.218148 C3477.21293,813.218148 3476.15747,814.290275 3476.15747,815.606167 C3476.15747,816.922343 3477.21293,818 3478.5083,818 L3480.18925,818 C3481.27256,818 3482.1827,817.25105 3482.45646,816.24153 C3483.0037,816.162048 3483.8691,815.963448 3484.72905,815.453016 C3485.9408,814.73264 3487.37577,813.263597 3487.56584,810.302539 C3489.48097,810.183492 3490.99999,808.567112 3490.99999,806.593168 L3490.99999,804.970691 C3491.00543,803.008091 3489.49793,801.391498 3487.59362,801.266851 L3487.59362,801.266851 Z M3471.05919,808.947083 L3469.66868,808.947083 C3468.38985,808.947083 3467.35128,807.891831 3467.35128,806.593168 L3467.35128,804.970691 C3467.35128,803.671745 3468.38985,802.616776 3469.66868,802.616776 L3471.05919,802.616776 L3471.05919,808.947083 Z M3480.18925,816.63873 L3478.5083,816.63873 C3477.94989,816.63873 3477.49758,816.179206 3477.49758,815.611981 C3477.49758,815.044756 3477.94989,814.585303 3478.5083,814.585303 L3480.18925,814.585303 C3480.74766,814.585303 3481.20004,815.044756 3481.20004,815.611981 C3481.20004,816.179206 3480.74766,816.63873 3480.18925,816.63873 L3480.18925,816.63873 Z M3489.66532,806.593168 C3489.66532,807.891831 3488.62675,808.947083 3487.34799,808.947083 L3485.95769,808.947083 L3485.95769,802.616776 L3487.34799,802.616776 C3488.62675,802.616776 3489.66532,803.671745 3489.66532,804.970691 L3489.66532,806.593168 Z" id="19"></path>
        </g>
    </g>
</svg>