<?xml version="1.0" encoding="UTF-8"?>
<svg width="23px" height="22px" viewBox="0 0 23 22" version="1.1" xmlns="http://www.w3.org/2000/svg" xmlns:xlink="http://www.w3.org/1999/xlink">
    <!-- Generator: Sketch 51.1 (57501) - http://www.bohemiancoding.com/sketch -->
    <title>18</title>
    <desc>Created with Sketch.</desc>
    <defs></defs>
    <g id="Page-1" stroke="none" stroke-width="1" fill="none" fill-rule="evenodd">
        <g id="Artboard" transform="translate(-3490.000000, -838.000000)" fill="#7E879E">
            <path d="M3493.56293,847.712013 L3491.62473,846.342409 L3493.56293,844.972806 L3493.56293,847.712013 L3493.56293,847.712013 Z M3508.25921,841.632067 L3508.25921,848.517745 L3503.72049,851.743937 L3501.86998,850.276322 C3501.8671,850.274025 3501.86463,850.272555 3501.86185,850.270534 C3501.65507,850.111896 3501.36249,850.106063 3501.14786,850.276322 L3499.28391,851.754501 L3494.74096,848.544384 L3494.74096,841.632067 L3508.25921,841.632067 L3508.25921,841.632067 Z M3501.50067,839.364046 L3502.99702,840.427532 L3499.9957,840.427532 L3501.50067,839.364046 L3501.50067,839.364046 Z M3511.31938,846.342547 L3509.43725,847.680367 L3509.43725,845.005186 L3511.31938,846.342547 L3511.31938,846.342547 Z M3504.69592,852.517474 L3511.80593,847.463628 L3511.82031,858.1678 L3504.69592,852.517474 L3504.69592,852.517474 Z M3501.50894,851.514109 L3510.65458,858.767357 L3492.33032,858.793123 L3501.50894,851.514109 L3501.50894,851.514109 Z M3498.30727,852.529048 L3491.19393,858.170188 L3491.17956,847.492656 L3498.30727,852.529048 L3498.30727,852.529048 Z M3512.98244,846.332259 C3512.98239,846.296894 3512.97466,846.243478 3512.96123,846.212706 C3512.92592,846.081624 3512.84731,845.961887 3512.72971,845.878296 L3509.43729,843.538305 L3509.43729,841.029846 C3509.43729,840.697273 3509.17351,840.427624 3508.84828,840.427624 L3505.06051,840.427624 L3501.83763,838.136777 C3501.6362,837.993432 3501.36878,837.992835 3501.16677,838.135537 L3497.92314,840.427624 L3494.15195,840.427624 C3493.82663,840.427624 3493.56293,840.697273 3493.56293,841.029846 L3493.56293,843.508727 L3490.25453,845.846559 C3490.09178,845.961566 3490.00373,846.145466 3490.00094,846.333407 C3490.00076,846.336944 3490,846.340342 3490,846.344017 L3490.01756,859.398605 C3490.01779,859.558301 3490.08005,859.711382 3490.1906,859.824184 C3490.30107,859.936756 3490.45061,860 3490.60658,860 L3490.60739,860 L3512.41179,859.969319 C3512.73707,859.96886 3513.00045,859.698889 3513,859.366271 L3512.98244,846.332259 L3512.98244,846.332259 Z" id="18"></path>
        </g>
    </g>
</svg>