<?xml version="1.0" encoding="UTF-8"?>
<svg width="20px" height="20px" viewBox="0 0 20 20" version="1.1" xmlns="http://www.w3.org/2000/svg" xmlns:xlink="http://www.w3.org/1999/xlink">
    <!-- Generator: Sketch 51.1 (57501) - http://www.bohemiancoding.com/sketch -->
    <title>16</title>
    <desc>Created with Sketch.</desc>
    <defs>
        <polygon id="path-1" points="0.00306122449 0.0244897959 0.00306122449 19.9999847 20 19.9999847 20 0.0244897959 0.00306122449 0.0244897959"></polygon>
    </defs>
    <g id="Page-1" stroke="none" stroke-width="1" fill="none" fill-rule="evenodd">
        <g id="Artboard" transform="translate(-3468.000000, -927.000000)">
            <g id="16" transform="translate(3468.000000, 927.000000)">
                <g id="Group-3">
                    <mask id="mask-2" fill="white">
                        <use xlink:href="#path-1"></use>
                    </mask>
                    <g id="Clip-2"></g>
                    <path d="M15.7387755,12.5958163 C15.5223469,12.7510714 15.3960204,13.0039796 15.3960204,13.2694388 L15.3960204,17.2530612 L12.4286735,14.4407143 C12.2734184,14.2938776 12.0041327,14.1754592 11.722551,14.2244898 C11.1591327,14.3223469 10.5795408,14.3592347 10,14.3592347 C5.40418367,14.3592347 1.66535714,11.5184184 1.66535714,8.02454082 C1.66535714,4.53061224 5.40418367,1.68979592 10,1.68979592 C14.5958163,1.68979592 18.3346429,4.53061224 18.3346429,8.02454082 C18.3346429,9.75923469 17.4122959,11.3836735 15.7387755,12.5958163 L15.7387755,12.5958163 Z M10,0.0244897959 C4.48581633,0.0244897959 0,3.6122449 0,8.02454082 C0,12.4367857 4.48581633,16.0245408 10,16.0245408 C10.5265306,16.0245408 11.0531122,15.9918878 11.5754592,15.9265306 L15.6570918,19.7958673 C15.8163265,19.9469388 16.2326531,20.0693367 16.5591327,19.955102 C16.8734184,19.844898 17.0653061,19.522449 17.0653061,19.1878061 L17.0653061,13.6858163 C18.9387245,12.1918367 20,10.1468367 20,8.02852041 C20,3.6122449 15.5141837,0.0244897959 10,0.0244897959 L10,0.0244897959 Z" id="Fill-1" fill="#7E879E" mask="url(#mask-2)"></path>
                </g>
                <path d="M10,2.68153061 C8.28561224,2.68153061 6.89392857,4.07341837 6.89392857,5.78780612 C6.89392857,6.24897959 7.26938776,6.62443878 7.73061224,6.62443878 C8.19178571,6.62443878 8.56744898,6.24897959 8.56744898,5.78780612 C8.56744898,4.99994898 9.20816327,4.35505102 10,4.35505102 C10.7878061,4.35505102 11.432551,4.99596939 11.432551,5.78780612 C11.432551,6.22443878 11.2366327,6.63260204 10.8980612,6.90607143 C10.6694388,7.07744898 9.3347449,8.15923469 9.3347449,10.1386735 C9.3347449,10.600051 9.71020408,10.9755102 10.1713776,10.9755102 C10.632551,10.9755102 11.0082653,10.600051 11.0082653,10.1386735 C11.0082653,8.94290816 11.8164286,8.30612245 11.8897449,8.25311224 C11.9060714,8.24076531 11.9102551,8.24076531 11.9266327,8.22443878 C12.677551,7.63270408 13.1060714,6.74285714 13.1060714,5.78780612 C13.1060714,4.07341837 11.7143878,2.68153061 10,2.68153061 L10,2.68153061 Z" id="Fill-4" fill="#7E879E"></path>
                <path d="M9.10612245,12.4531122 C9.10612245,12.9469898 9.50612245,13.3469898 10,13.3469898 C10.4938776,13.3469898 10.8938776,12.9469898 10.8938776,12.4531122 C10.8938776,11.9592857 10.4938776,11.5590816 10,11.5590816 C9.50612245,11.5590816 9.10612245,11.9592857 9.10612245,12.4531122 Z" id="Fill-5" fill="#7E879E"></path>
            </g>
        </g>
    </g>
</svg>