<?xml version="1.0" encoding="UTF-8"?>
<svg width="15px" height="15px" viewBox="0 0 15 15" version="1.1" xmlns="http://www.w3.org/2000/svg" xmlns:xlink="http://www.w3.org/1999/xlink">
    <!-- Generator: Sketch 51.1 (57501) - http://www.bohemiancoding.com/sketch -->
    <title>search</title>
    <desc>Created with Sketch.</desc>
    <defs></defs>
    <g id="Page-1" stroke="none" stroke-width="1" fill="none" fill-rule="evenodd">
        <g id="Artboard-2" transform="translate(-5043.000000, -7393.000000)" fill="#FFFFFF" fill-rule="nonzero">
            <path d="M5043,7399.24079 C5043,7402.68366 5045.80098,7405.48157 5049.24079,7405.48157 C5050.82555,7405.48157 5052.27518,7404.88575 5053.37776,7403.90909 L5057.35504,7407.88636 C5057.42875,7407.96007 5057.52396,7407.99693 5057.62224,7407.99693 C5057.72052,7407.99693 5057.81572,7407.96007 5057.88943,7407.88636 C5058.03686,7407.73894 5058.03686,7407.50246 5057.88943,7407.35504 L5053.90909,7403.37776 C5054.88575,7402.27518 5055.48157,7400.82862 5055.48157,7399.24079 C5055.48157,7395.79791 5052.68059,7393 5049.24079,7393 C5045.80098,7393 5043,7395.79791 5043,7399.24079 Z M5054.72912,7399.24079 C5054.72912,7402.26597 5052.26597,7404.72912 5049.24079,7404.72912 C5046.2156,7404.72912 5043.75246,7402.26597 5043.75246,7399.24079 C5043.75246,7396.2156 5046.2156,7393.75246 5049.24079,7393.75246 C5052.26597,7393.75246 5054.72912,7396.21253 5054.72912,7399.24079 Z" id="search"></path>
        </g>
    </g>
</svg>