<?xml version="1.0" encoding="UTF-8"?>
<svg width="15px" height="15px" viewBox="0 0 15 15" version="1.1" xmlns="http://www.w3.org/2000/svg" xmlns:xlink="http://www.w3.org/1999/xlink">
    <!-- Generator: Sketch 51.1 (57501) - http://www.bohemiancoding.com/sketch -->
    <title>Shape</title>
    <desc>Created with Sketch.</desc>
    <defs></defs>
    <g id="Page-1" stroke="none" stroke-width="1" fill="none" fill-rule="evenodd">
        <g id="Uzstandart13" transform="translate(-683.000000, -2283.000000)" fill="#8B93A8" fill-rule="nonzero">
            <path d="M690.4998,2283 C686.357822,2283 683,2286.35805 683,2290.49985 C683,2294.64165 686.357822,2298 690.4998,2298 C694.641778,2298 698,2294.64185 698,2290.49985 C698,2286.35785 694.641778,2283 690.4998,2283 Z M689.665694,2290.49985 C689.665694,2290.6565 689.637144,2290.8054 689.587244,2290.9449 L691.680658,2291.952 C691.921609,2291.68825 692.267212,2291.52225 692.652464,2291.52225 C693.380119,2291.52225 693.970123,2292.11205 693.970123,2292.83965 C693.970123,2293.5674 693.379969,2294.15745 692.652164,2294.15745 C691.924509,2294.15745 691.334206,2293.5674 691.334206,2292.83965 C691.334206,2292.7699 691.341456,2292.7018 691.351856,2292.63515 L689.123441,2291.56335 C688.905589,2291.72275 688.637938,2291.8178 688.347436,2291.8178 C687.619681,2291.8178 687.029627,2291.228 687.029627,2290.49975 C687.029627,2289.77225 687.619681,2289.18235 688.347436,2289.18235 C688.637938,2289.18235 688.905689,2289.2774 689.123591,2289.43665 L691.352156,2288.3651 C691.341656,2288.2983 691.334506,2288.2305 691.334506,2288.1606 C691.334506,2287.4327 691.924659,2286.8428 692.652464,2286.8428 C693.380119,2286.8428 693.970273,2287.4327 693.970273,2288.1606 C693.970273,2288.88835 693.380119,2289.4784 692.652464,2289.4784 C692.267462,2289.4784 691.921609,2289.312 691.680658,2289.0485 L689.587244,2290.0552 C689.637194,2290.1945 689.665694,2290.34375 689.665694,2290.49985 Z" id="Shape"></path>
        </g>
    </g>
</svg>