<?xml version="1.0" encoding="UTF-8"?>
<svg width="22px" height="23px" viewBox="0 0 22 23" version="1.1" xmlns="http://www.w3.org/2000/svg" xmlns:xlink="http://www.w3.org/1999/xlink">
    <!-- Generator: Sketch 51.1 (57501) - http://www.bohemiancoding.com/sketch -->
    <title>4</title>
    <desc>Created with Sketch.</desc>
    <defs></defs>
    <g id="Page-1" stroke="none" stroke-width="1" fill="none" fill-rule="evenodd">
        <g id="Artboard" transform="translate(-3193.000000, -1206.000000)" fill="#7E879E">
            <path d="M3212.27943,1206.86389 L3195.60083,1206.86389 C3194.16435,1206.86389 3193,1208.02525 3193,1209.45875 L3193,1226.14929 C3193,1227.58219 3194.16435,1228.74415 3195.60083,1228.74415 L3212.27943,1228.74415 C3213.71592,1228.74415 3214.88026,1227.58219 3214.88026,1226.14929 L3214.88026,1209.45875 C3214.88026,1208.02525 3213.71592,1206.86389 3212.27943,1206.86389 L3212.27943,1206.86389 Z M3208.72672,1210.28233 C3208.72672,1209.90515 3209.03287,1209.599 3209.41005,1209.599 L3211.46123,1209.599 C3211.839,1209.599 3212.14515,1209.90515 3212.14515,1210.28233 L3212.14515,1212.3341 C3212.14515,1212.71128 3211.839,1213.01743 3211.46123,1213.01743 L3209.41005,1213.01743 C3209.03287,1213.01743 3208.72672,1212.71128 3208.72672,1212.3341 L3208.72672,1210.28233 L3208.72672,1210.28233 Z M3203.96549,1213.63153 C3206.28941,1213.63153 3208.17349,1215.51144 3208.17349,1217.82938 C3208.17349,1220.14793 3206.28941,1222.02723 3203.96549,1222.02723 C3201.64218,1222.02723 3199.7581,1220.14793 3199.7581,1217.82938 C3199.7581,1215.51144 3201.64218,1213.63153 3203.96549,1213.63153 L3203.96549,1213.63153 Z M3212.82908,1226.00904 C3212.82908,1226.38622 3212.52292,1226.69297 3212.14515,1226.69297 L3195.73511,1226.69297 C3195.35734,1226.69297 3195.05118,1226.38622 3195.05118,1226.00904 L3195.05118,1215.75254 L3197.78629,1215.75254 C3197.43,1216.26519 3197.30945,1217.22185 3197.30945,1217.82938 C3197.30945,1221.49072 3200.29581,1224.46991 3203.96549,1224.46991 C3207.63578,1224.46991 3210.62214,1221.49072 3210.62214,1217.82938 C3210.62214,1217.22185 3210.5356,1216.28011 3210.09397,1215.75254 L3212.82908,1215.75254 L3212.82908,1226.00904 L3212.82908,1226.00904 Z" id="4"></path>
        </g>
    </g>
</svg>