<?xml version="1.0" encoding="UTF-8"?>
<svg width="25px" height="16px" viewBox="0 0 25 16" version="1.1" xmlns="http://www.w3.org/2000/svg" xmlns:xlink="http://www.w3.org/1999/xlink">
    <!-- Generator: Sketch 51.1 (57501) - http://www.bohemiancoding.com/sketch -->
    <title>7</title>
    <desc>Created with Sketch.</desc>
    <defs></defs>
    <g id="Page-1" stroke="none" stroke-width="1" fill="none" fill-rule="evenodd">
        <g id="Artboard" transform="translate(-3192.000000, -1106.000000)" fill="#7E879E">
            <path d="M3199.64911,1112.14519 L3206.99505,1112.14519 C3207.5065,1115.81726 3205.96319,1121.32508 3199.64911,1121.32508 C3195.425,1121.32508 3192,1117.89411 3192,1113.66224 C3192,1109.43037 3195.425,1106 3199.64911,1106 C3201.63106,1106 3203.43696,1106.75494 3204.79586,1107.99389 C3203.19526,1109.50855 3203.24778,1109.59867 3202.61876,1110.22888 C3201.83278,1109.57778 3200.97578,1109.11049 3199.64911,1109.11049 C3197.13959,1109.11049 3195.18091,1111.14854 3195.18091,1113.66224 C3195.18091,1116.17653 3197.13959,1118.21458 3199.64911,1118.21458 C3202.12879,1118.21458 3203.13618,1117.14334 3203.7843,1115.17571 C3202.58772,1115.17571 3199.64911,1115.17989 3199.64911,1115.17989 L3199.64911,1112.14519 Z M3213.43207,1112.29677 L3216.08243,1112.29677 L3216.08243,1114.19339 L3213.43207,1114.19339 L3213.43207,1116.92491 L3211.53904,1116.92491 L3211.53904,1114.19339 L3208.81229,1114.19339 L3208.81229,1112.29677 L3211.53904,1112.29677 L3211.53904,1109.64164 L3213.43207,1109.64164 L3213.43207,1112.29677 Z" id="7"></path>
        </g>
    </g>
</svg>