<?xml version="1.0" encoding="UTF-8"?>
<svg width="23px" height="20px" viewBox="0 0 23 20" version="1.1" xmlns="http://www.w3.org/2000/svg" xmlns:xlink="http://www.w3.org/1999/xlink">
    <!-- Generator: Sketch 51.1 (57501) - http://www.bohemiancoding.com/sketch -->
    <title>5</title>
    <desc>Created with Sketch.</desc>
    <defs></defs>
    <g id="Page-1" stroke="none" stroke-width="1" fill="none" fill-rule="evenodd">
        <g id="Artboard" transform="translate(-3193.000000, -1260.000000)" fill="#7E879E">
            <path d="M3214.73524,1260.90316 C3213.8484,1261.44146 3212.86847,1261.83296 3211.82109,1262.04244 C3210.98678,1261.12934 3209.79438,1260.55881 3208.47427,1260.55881 C3205.94387,1260.55881 3203.8903,1262.66429 3203.8903,1265.26095 C3203.8903,1265.62976 3203.92969,1265.98724 3204.00846,1266.33159 C3200.19734,1266.13525 3196.81889,1264.26549 3194.55584,1261.417 C3194.16076,1262.11405 3193.93518,1262.92271 3193.93518,1263.78388 C3193.93518,1265.41432 3194.74443,1266.85379 3195.97562,1267.69706 C3195.22485,1267.67438 3194.51645,1267.46073 3193.89698,1267.11101 L3193.89698,1267.1683 C3193.89698,1269.44746 3195.47789,1271.34884 3197.57741,1271.77913 C3197.19308,1271.88954 3196.78726,1271.94504 3196.3689,1271.94504 C3196.07349,1271.94504 3195.78524,1271.91639 3195.50594,1271.86149 C3196.0896,1273.72886 3197.78211,1275.08895 3199.78913,1275.12536 C3198.22016,1276.38698 3196.24179,1277.13894 3194.09392,1277.13894 C3193.72391,1277.13894 3193.35808,1277.11745 3193,1277.07448 C3195.0291,1278.40653 3197.44074,1279.18535 3200.02964,1279.18535 C3208.46532,1279.18535 3213.07675,1272.02143 3213.07675,1265.80701 C3213.07675,1265.60231 3213.07317,1265.39821 3213.06541,1265.19769 C3213.9612,1264.53465 3214.73942,1263.70689 3215.35173,1262.76396 C3214.53054,1263.13755 3213.64609,1263.39059 3212.71867,1263.50398 C3213.66579,1262.92271 3214.39268,1262.00126 3214.73524,1260.90316" id="5"></path>
        </g>
    </g>
</svg>