<?xml version="1.0" encoding="UTF-8"?>
<svg width="18px" height="15px" viewBox="0 0 18 15" version="1.1" xmlns="http://www.w3.org/2000/svg" xmlns:xlink="http://www.w3.org/1999/xlink">
    <!-- Generator: Sketch 51.1 (57501) - http://www.bohemiancoding.com/sketch -->
    <title>34</title>
    <desc>Created with Sketch.</desc>
    <defs></defs>
    <g id="Page-1" stroke="none" stroke-width="1" fill="none" fill-rule="evenodd">
        <g id="Artboard-2" transform="translate(-4291.000000, -1887.000000)" fill="#6da7ec">
            <path d="M4308.77803,1889.03571 C4308.27952,1889.76488 4307.67684,1890.38616 4306.97,1890.89955 C4306.97744,1891.00372 4306.98116,1891.15997 4306.98116,1891.3683 C4306.98116,1892.33557 4306.83979,1893.30096 4306.55705,1894.26451 C4306.27431,1895.22806 4305.84463,1896.15253 4305.26799,1897.03795 C4304.69135,1897.92337 4304.00497,1898.70647 4303.20884,1899.38728 C4302.4127,1900.06808 4301.45289,1900.61123 4300.32937,1901.01674 C4299.20585,1901.42225 4298.00423,1901.625 4296.72446,1901.625 C4294.70808,1901.625 4292.86286,1901.08557 4291.18875,1900.0067 C4291.44916,1900.03646 4291.73934,1900.05134 4292.05928,1900.05134 C4293.7334,1900.05134 4295.2252,1899.53795 4296.53473,1898.51116 C4295.75347,1898.49628 4295.05408,1898.25633 4294.43651,1897.79129 C4293.81895,1897.32626 4293.39485,1896.73289 4293.16419,1896.01116 C4293.40973,1896.04836 4293.63666,1896.06696 4293.845,1896.06696 C4294.16494,1896.06696 4294.48115,1896.02604 4294.79366,1895.9442 C4293.96032,1895.77306 4293.27022,1895.35826 4292.72334,1894.69978 C4292.17647,1894.04129 4291.90303,1893.27679 4291.90303,1892.40625 L4291.90303,1892.36161 C4292.40899,1892.64435 4292.95214,1892.79687 4293.5325,1892.8192 C4293.04142,1892.49181 4292.6508,1892.06399 4292.36062,1891.53571 C4292.07044,1891.00744 4291.92535,1890.43453 4291.92535,1889.81696 C4291.92535,1889.1622 4292.08904,1888.55581 4292.41642,1887.99777 C4293.31673,1889.1064 4294.41233,1889.99367 4295.70325,1890.6596 C4296.99418,1891.32552 4298.37624,1891.69568 4299.84946,1891.77009 C4299.78994,1891.48735 4299.76017,1891.21205 4299.76017,1890.9442 C4299.76017,1889.94717 4300.11173,1889.0971 4300.81486,1888.39397 C4301.51799,1887.69084 4302.36806,1887.33929 4303.36509,1887.33929 C4304.40676,1887.33929 4305.28472,1887.71875 4305.99901,1888.47768 C4306.81003,1888.32143 4307.57267,1888.03125 4308.28696,1887.60714 C4308.01166,1888.4628 4307.48339,1889.125 4306.70214,1889.59375 C4307.39411,1889.51934 4308.08606,1889.33333 4308.77803,1889.03571 Z" id="34"></path>
        </g>
    </g>
</svg>