<?xml version="1.0" encoding="UTF-8"?>
<svg width="22px" height="23px" viewBox="0 0 22 23" version="1.1" xmlns="http://www.w3.org/2000/svg" xmlns:xlink="http://www.w3.org/1999/xlink">
    <!-- Generator: Sketch 51.1 (57501) - http://www.bohemiancoding.com/sketch -->
    <title>3</title>
    <desc>Created with Sketch.</desc>
    <defs></defs>
    <g id="Page-1" stroke="none" stroke-width="1" fill="none" fill-rule="evenodd">
        <g id="Artboard" transform="translate(-3193.000000, -1153.000000)" fill="#7E879E">
            <path d="M3214.90891,1173.83953 C3214.90891,1174.50735 3214.36762,1175.04923 3213.6998,1175.04923 L3208.11679,1175.04923 L3208.11679,1166.56461 L3210.9647,1166.56461 L3211.3914,1163.25837 L3208.11679,1163.25837 L3208.11679,1161.14692 C3208.11679,1160.18966 3208.38296,1159.53736 3209.75559,1159.53736 L3211.50658,1159.53677 L3211.50658,1156.57905 C3211.20341,1156.53907 3210.16439,1156.44895 3208.95529,1156.44895 C3206.43085,1156.44895 3204.70254,1157.98988 3204.70254,1160.81987 L3204.70254,1163.25837 L3201.84747,1163.25837 L3201.84747,1166.56461 L3204.70254,1166.56461 L3204.70254,1175.04923 L3194.2091,1175.04923 C3193.54129,1175.04923 3193,1174.50735 3193,1173.83953 L3193,1154.34943 C3193,1153.68102 3193.54129,1153.13973 3194.2091,1153.13973 L3213.6998,1153.13973 C3214.36762,1153.13973 3214.90891,1153.68102 3214.90891,1154.34943 L3214.90891,1173.83953" id="3"></path>
        </g>
    </g>
</svg>