<?xml version="1.0" encoding="UTF-8"?>
<svg width="23px" height="21px" viewBox="0 0 23 21" version="1.1" xmlns="http://www.w3.org/2000/svg" xmlns:xlink="http://www.w3.org/1999/xlink">
    <!-- Generator: Sketch 51.1 (57501) - http://www.bohemiancoding.com/sketch -->
    <title>6</title>
    <desc>Created with Sketch.</desc>
    <defs></defs>
    <g id="Page-1" stroke="none" stroke-width="1" fill="none" fill-rule="evenodd">
        <g id="Artboard" transform="translate(-3193.000000, -1311.000000)" fill="#7E879E">
            <path d="M3193.55502,1317.41792 L3197.84597,1317.41792 L3197.84597,1331.01409 L3193.55502,1331.01409 L3193.55502,1317.41792 Z M3209.56999,1317.28723 C3212.61961,1317.28723 3215.01573,1319.24292 3215.01573,1323.4545 L3215.01573,1331.01409 L3210.15007,1331.01409 L3210.15007,1323.97848 C3210.15007,1322.13677 3209.38916,1320.87993 3207.71515,1320.87993 C3206.43503,1320.87993 3205.72305,1321.72797 3205.39183,1322.54558 C3205.2677,1322.8392 3205.2868,1323.248 3205.2868,1323.65681 L3205.2868,1331.01409 L3200.46649,1331.01409 C3200.46649,1331.01409 3200.52856,1318.55124 3200.46649,1317.41792 L3205.2868,1317.41792 L3205.2868,1319.55206 C3205.57147,1318.61867 3207.11179,1317.28723 3209.56999,1317.28723 Z M3195.62112,1311 C3197.20441,1311 3198.17779,1312.01515 3198.20882,1313.35674 C3198.20882,1314.67446 3197.20441,1315.71766 3195.59128,1315.71766 L3195.56025,1315.71766 C3194.00739,1315.71766 3193,1314.67804 3193,1313.36032 C3193,1312.01753 3194.03663,1311 3195.62112,1311 Z" id="6"></path>
        </g>
    </g>
</svg>