<?xml version="1.0" encoding="UTF-8"?>
<svg width="25px" height="22px" viewBox="0 0 25 22" version="1.1" xmlns="http://www.w3.org/2000/svg" xmlns:xlink="http://www.w3.org/1999/xlink">
    <!-- Generator: Sketch 51.1 (57501) - http://www.bohemiancoding.com/sketch -->
    <title>sad-emoticon-square-face</title>
    <desc>Created with Sketch.</desc>
    <defs>
        <polygon id="path-1" points="0.0340909091 0.419449186 0.0340909091 21.9768718 24.5831994 21.9768718 24.5831994 0.419449186 0.0340909091 0.419449186"></polygon>
    </defs>
    <g id="Page-1" stroke="none" stroke-width="1" fill="none" fill-rule="evenodd">
        <g id="Uzstandart13" transform="translate(-845.000000, -2369.000000)">
            <g id="sad-emoticon-square-face" transform="translate(845.000000, 2369.000000)">
                <mask id="mask-2" fill="white">
                    <use xlink:href="#path-1"></use>
                </mask>
                <g id="Clip-2"></g>
                <path d="M22.9914773,20.0685128 C23.2909091,20.7561538 22.9715909,21.5515385 22.28125,21.8488205 C21.5886364,22.1466667 20.7875,21.8290769 20.4880682,21.1436923 C19.1738636,18.1251795 16.0642045,16.1750769 12.56875,16.1750769 C8.99318182,16.1750769 5.86590909,18.1229231 4.60340909,21.142 C4.38579545,21.6615385 3.87954545,21.9746154 3.34488636,21.9768718 C3.16931818,21.9768718 2.99431818,21.9418974 2.82102273,21.8730769 C2.12613636,21.5848205 1.79772727,20.7911282 2.08636364,20.1017949 C3.77102273,16.0712821 7.88806818,13.4668205 12.56875,13.4668205 C17.1539773,13.4668205 21.2448864,16.0583077 22.9914773,20.0685128 L22.9914773,20.0685128 Z M3.06931818,4.752 L1.89545455,5.12882051 C1.14318182,5.36912821 0.3375,4.95902564 0.0954545455,4.21215385 C-0.146590909,3.46528205 0.266477273,2.66538462 1.01875,2.42507692 L6.80284091,0.57425641 C7.55511364,0.333948718 8.36079545,0.743487179 8.60284091,1.49092308 C8.82215909,2.16051282 8.50511364,2.87241026 7.89261364,3.18548718 C8.94431818,4.28041026 8.93125,6.01671795 7.84772727,7.09189744 C6.74715909,8.18512821 4.9625,8.18512821 3.86193182,7.09189744 C3.21818182,6.45333333 2.96306818,5.58292308 3.06931818,4.752 L3.06931818,4.752 Z M22.7142045,5.04307692 L21.5375,4.66625641 C21.6465909,5.49887179 21.3909091,6.36702564 20.7477273,7.00615385 C19.6465909,8.09882051 17.8625,8.09882051 16.7613636,7.00615385 C15.6784091,5.93097436 15.6647727,4.19692308 16.7170455,3.09917949 C16.1045455,2.78835897 15.7869318,2.07702564 16.0068182,1.40461538 C16.2488636,0.65774359 17.0545455,0.248205128 17.8068182,0.487948718 L23.5909091,2.33933333 C24.3431818,2.58133333 24.7556818,3.37897436 24.5142045,4.12641026 C24.2721591,4.87328205 23.4642045,5.28282051 22.7142045,5.04307692 Z" id="Fill-1" fill="#184FA8" mask="url(#mask-2)"></path>
            </g>
        </g>
    </g>
</svg>