<?xml version="1.0" encoding="UTF-8"?>
<svg width="21px" height="19px" viewBox="0 0 21 19" version="1.1" xmlns="http://www.w3.org/2000/svg" xmlns:xlink="http://www.w3.org/1999/xlink">
    <!-- Generator: Sketch 51.1 (57501) - http://www.bohemiancoding.com/sketch -->
    <title>smiley-square-face (1)</title>
    <desc>Created with Sketch.</desc>
    <defs></defs>
    <g id="Page-1" stroke="none" stroke-width="1" fill="none" fill-rule="evenodd">
        <g id="Uzstandart13" transform="translate(-549.000000, -2370.000000)" fill="#184FA8">
            <path d="M569.903715,2381.66487 C570.011252,2381.83308 570.031129,2382.04385 569.951113,2382.22867 C568.205541,2386.34141 564.114021,2389 559.529154,2389 C554.846943,2389 550.729941,2386.32895 549.045527,2382.19597 C548.969588,2382.01167 548.989465,2381.80089 549.099041,2381.63632 C549.206578,2381.47019 549.390055,2381.37103 549.584743,2381.37103 L569.415974,2381.39699 C569.612701,2381.39699 569.796177,2381.49667 569.903715,2381.66487 L569.903715,2381.66487 Z M549.50116,2374.53844 C549.479245,2374.49016 549.467522,2374.43929 549.467522,2374.38841 C549.467522,2374.31365 549.493515,2374.23837 549.539384,2374.17763 L552.676827,2370.12771 C552.740534,2370.04465 552.83584,2370 552.9393,2370 C553.04327,2370 553.138576,2370.04465 553.200244,2370.12564 L556.339726,2374.17763 C556.415665,2374.27679 556.433503,2374.41904 556.379479,2374.53481 C556.319849,2374.65629 556.206706,2374.72949 556.079292,2374.72949 L554.62983,2374.72949 C554.555929,2374.72949 554.486616,2374.69471 554.440747,2374.63605 L552.9393,2372.69701 L551.438363,2374.63605 C551.392494,2374.69263 551.324709,2374.72949 551.251319,2374.72949 L549.801857,2374.72949 C549.674443,2374.72949 549.557222,2374.65422 549.50116,2374.53844 L549.50116,2374.53844 Z M562.597284,2374.53844 C562.575369,2374.49016 562.563137,2374.43929 562.563137,2374.38841 C562.563137,2374.31365 562.58913,2374.23837 562.634999,2374.17763 L565.772442,2370.12771 C565.836149,2370.04465 565.931964,2370 566.035425,2370 C566.138885,2370 566.234191,2370.04465 566.295859,2370.12564 L569.435851,2374.17763 C569.51128,2374.27679 569.529118,2374.41904 569.475604,2374.53481 C569.415974,2374.65629 569.302321,2374.72949 569.172868,2374.72949 L567.725444,2374.72949 C567.652054,2374.72949 567.582231,2374.69471 567.536362,2374.63605 L566.035425,2372.69701 L564.533978,2374.63605 C564.488618,2374.69263 564.420834,2374.72949 564.346934,2374.72949 L562.897472,2374.72949 C562.770058,2374.72949 562.650798,2374.65422 562.597284,2374.53844 L562.597284,2374.53844 Z" id="smiley-square-face-(1)"></path>
        </g>
    </g>
</svg>