<?xml version="1.0" encoding="UTF-8"?>
<svg width="21px" height="28px" viewBox="0 0 21 28" version="1.1" xmlns="http://www.w3.org/2000/svg" xmlns:xlink="http://www.w3.org/1999/xlink">
    <!-- Generator: Sketch 51.1 (57501) - http://www.bohemiancoding.com/sketch -->
    <title>emoticon-square-surprised-face-with-open-circular-mouth</title>
    <desc>Created with Sketch.</desc>
    <defs>
        <polygon id="path-1" points="0.0381818182 0.149753675 0.0381818182 31.9744 22.6837455 31.9744 22.6837455 0.149753675 0.0381818182 0.149753675"></polygon>
    </defs>
    <g id="Page-1" stroke="none" stroke-width="1" fill="none" fill-rule="evenodd">
        <g id="Uzstandart13" transform="translate(-695.000000, -2367.000000)">
            <g id="emoticon-square-surprised-face-with-open-circular-mouth" transform="translate(693.000000, 2366.000000)">
                <mask id="mask-2" fill="white">
                    <use xlink:href="#path-1"></use>
                </mask>
                <g id="Clip-2"></g>
                <path d="M3.39109988,4.8101331 C1.65856849,4.13454772 2.34282457,2.40721303 2.34282457,2.40721303 C2.99518206,0.718878619 4.85906059,1.44667404 4.85906059,1.44667404 C6.45961937,2.07319456 7.54917521,4.95544057 7.54917521,4.95544057 C6.1881686,4.66042238 5.24747286,4.87932714 5.24747286,4.87932714 C4.17730636,5.11773203 3.39109988,4.8101331 3.39109988,4.8101331 L3.39109988,4.8101331 Z M5.37944547,11.2822914 C4.47064832,11.2822914 3.73260246,10.2311711 3.73260246,8.93346845 C3.73260246,7.63639485 4.47064832,6.58212939 5.37944547,6.58212939 C6.28824262,6.58212939 7.02628848,7.63639485 7.02628848,8.93346845 C7.02628848,10.2311711 6.28824262,11.2822914 5.37944547,11.2822914 L5.37944547,11.2822914 Z M22.5502701,2.35814817 C22.5502701,2.35814817 23.2345262,4.08296671 21.5044966,4.7585521 C21.5044966,4.7585521 20.7157883,5.06866717 19.6481237,4.82774613 C19.6481237,4.82774613 18.7074279,4.61135752 17.3464213,4.90637571 C17.3464213,4.90637571 18.4334753,2.02161356 20.0365359,1.39509304 C20.0365359,1.39760918 21.8979126,0.667297612 22.5502701,2.35814817 L22.5502701,2.35814817 Z M21.1629941,8.88188745 C21.1629941,10.1814772 20.4249482,11.2332265 19.516151,11.2332265 C18.604852,11.2332265 17.8668062,10.1814772 17.8668062,8.88188745 C17.8668062,7.58481384 18.604852,6.53306453 19.516151,6.53306453 C20.4249482,6.53306453 21.1629941,7.58481384 21.1629941,8.88188745 L21.1629941,8.88188745 Z M19.4255015,21.1961789 C19.4255015,24.9613044 16.3820987,28.0241834 12.6399211,28.0241834 C8.89774351,28.0241834 5.85226722,24.9613044 5.85226722,21.1961789 C5.85226722,17.4326174 8.89567,14.3697384 12.6378476,14.3697384 C16.3800252,14.3697384 19.4255015,17.4326174 19.4255015,21.1961789 L19.4255015,21.1961789 Z" id="Fill-1" fill="#184FA8" mask="url(#mask-2)"></path>
            </g>
        </g>
    </g>
</svg>