<?xml version="1.0" encoding="UTF-8"?>
<svg width="22px" height="22px" viewBox="0 0 22 22" version="1.1" xmlns="http://www.w3.org/2000/svg" xmlns:xlink="http://www.w3.org/1999/xlink">
    <!-- Generator: Sketch 51.1 (57501) - http://www.bohemiancoding.com/sketch -->
    <title>icon</title>
    <desc>Created with Sketch.</desc>
    <defs></defs>
    <g id="Symbols" stroke="none" stroke-width="1" fill="none" fill-rule="evenodd">
        <g id="вилоятлар" transform="translate(-320.000000, -149.000000)" fill="#B6C8E3" fill-rule="nonzero">
            <g id="Group-15" transform="translate(-271.000000, 0.000000)">
                <g id="icon" transform="translate(591.000000, 149.000000)">
                    <path d="M6.83946154,9.49553846 L5.43146154,12.6923077 C5.39676923,12.7718462 5.30961538,12.8226154 5.214,12.8226154 L4.49307692,12.8226154 C4.39746154,12.8226154 4.31030769,12.771 4.27646154,12.6923077 L3.608,11.1666923 C3.54284615,11.0160769 3.48361538,10.8722308 3.42776923,10.7292308 C3.366,10.8866154 3.30253846,11.033 3.23907692,11.1734615 L2.53423077,12.6965385 C2.49869231,12.7735385 2.41238462,12.8226154 2.31846154,12.8226154 L1.59753846,12.8226154 C1.49853846,12.8226154 1.41223077,12.7693077 1.37838462,12.6889231 L0.0609230769,9.49130769 C0.0355384615,9.42869231 0.0456923077,9.35930769 0.0896923077,9.30430769 C0.133692308,9.24930769 0.203923077,9.21715385 0.280076923,9.21715385 L1.09153846,9.21715385 C1.19392308,9.21715385 1.28361538,9.27553846 1.31407692,9.36015385 L1.89284615,10.9847692 C1.94107692,11.1218462 1.98592308,11.2513077 2.02738462,11.3748462 C2.07815385,11.2513077 2.13315385,11.121 2.19153846,10.9830769 L2.904,9.34830769 C2.93869231,9.26961538 3.025,9.21715385 3.12061538,9.21715385 L3.79076923,9.21715385 C3.88807692,9.21715385 3.97438462,9.27046154 4.00907692,9.35 L4.68430769,10.9492308 C4.74523077,11.0930769 4.79938462,11.2276154 4.84930769,11.3545385 C4.89076923,11.2343846 4.939,11.1040769 4.994,10.9610769 L5.61761538,9.35507692 C5.64976923,9.27215385 5.73861538,9.21630769 5.83761538,9.21630769 L6.62115385,9.21630769 C6.69815385,9.21630769 6.76923077,9.24930769 6.81323077,9.30430769 C6.85807692,9.36184615 6.86653846,9.43207692 6.83946154,9.49553846 Z M14.3888462,9.49553846 L12.9808462,12.6923077 C12.9461538,12.7718462 12.859,12.8226154 12.7642308,12.8226154 L12.0416154,12.8226154 C11.946,12.8226154 11.8596923,12.771 11.825,12.6923077 L11.1573846,11.1666923 C11.0913846,11.0160769 11.0321538,10.8722308 10.9763077,10.7292308 C10.9145385,10.8866154 10.8510769,11.033 10.7876154,11.1734615 L10.0827692,12.6965385 C10.0472308,12.7735385 9.96176923,12.8226154 9.867,12.8226154 L9.14523077,12.8226154 C9.04707692,12.8226154 8.95992308,12.7693077 8.92607692,12.6889231 L7.60861538,9.49130769 C7.58323077,9.42869231 7.59338462,9.35930769 7.63738462,9.30430769 C7.68138462,9.25015385 7.75246154,9.21715385 7.82776923,9.21715385 L8.63923077,9.21715385 C8.74161538,9.21715385 8.83130769,9.27553846 8.86176923,9.36015385 L9.43969231,10.9847692 C9.48792308,11.1218462 9.53276923,11.2513077 9.57592308,11.3748462 C9.62584615,11.2513077 9.68,11.121 9.73838462,10.9830769 L10.4516923,9.34830769 C10.4855385,9.26961538 10.5718462,9.21715385 10.6683077,9.21715385 L11.3384615,9.21715385 C11.4357692,9.21715385 11.5229231,9.27046154 11.5567692,9.35 L12.2328462,10.9492308 C12.2929231,11.0930769 12.3470769,11.2276154 12.3961538,11.3545385 C12.4393077,11.2343846 12.4858462,11.1040769 12.5416923,10.9610769 L13.1653077,9.35507692 C13.1974615,9.27215385 13.2871538,9.21630769 13.3861538,9.21630769 L14.1696923,9.21630769 C14.2475385,9.21630769 14.3194615,9.24930769 14.3617692,9.30430769 C14.4066154,9.36184615 14.4167692,9.43207692 14.3888462,9.49553846 Z M21.9373846,9.49553846 L20.5302308,12.6923077 C20.4946923,12.7718462 20.4083846,12.8226154 20.3127692,12.8226154 L19.591,12.8226154 C19.4953846,12.8226154 19.4082308,12.771 19.3743846,12.6923077 L18.7067692,11.1666923 C18.6407692,11.0160769 18.5815385,10.8722308 18.5256923,10.7292308 C18.4639231,10.8866154 18.3996154,11.033 18.3361538,11.1734615 L17.6313077,12.6965385 C17.5957692,12.7735385 17.5094615,12.8226154 17.4155385,12.8226154 L16.6946154,12.8226154 C16.5956154,12.8226154 16.5084615,12.7693077 16.4746154,12.6889231 L15.1571538,9.49130769 C15.1326154,9.42869231 15.1410769,9.35930769 15.1850769,9.30430769 C15.2290769,9.24930769 15.3001538,9.21715385 15.3763077,9.21715385 L16.1886154,9.21715385 C16.291,9.21715385 16.3806923,9.27553846 16.4103077,9.36015385 L16.9890769,10.9847692 C17.0373077,11.1218462 17.0821538,11.2513077 17.1244615,11.3748462 C17.1743846,11.2513077 17.2285385,11.121 17.2869231,10.9830769 L18.0002308,9.34830769 C18.0349231,9.26961538 18.1212308,9.21715385 18.2176923,9.21715385 L18.887,9.21715385 C18.9843077,9.21715385 19.0714615,9.27046154 19.1053077,9.35 L19.7805385,10.9492308 C19.8414615,11.0930769 19.8964615,11.2276154 19.9463846,11.3545385 C19.9878462,11.2343846 20.0360769,11.1040769 20.0910769,10.9610769 L20.7155385,9.35507692 C20.7468462,9.27215385 20.8356923,9.21630769 20.9355385,9.21630769 L21.7190769,9.21630769 C21.7969231,9.21630769 21.868,9.24930769 21.9111538,9.30430769 C21.9543077,9.36184615 21.9644615,9.43207692 21.9373846,9.49553846 Z" id="Shape"></path>
                    <g id="Group">
                        <path d="M2.29307692,7.61538462 C2.53253846,7.00784615 2.83207692,6.42992308 3.18746154,5.89176923 C3.23992308,5.90192308 3.289,5.92307692 3.344,5.92307692 L4.93476923,5.92307692 C4.76638462,6.45953846 4.63438462,7.03069231 4.52015385,7.61538462 L6.259,7.61538462 C6.39015385,7.02392308 6.54246154,6.45107692 6.73453846,5.92307692 L15.1842308,5.92307692 C15.3763077,6.45107692 15.5286154,7.02392308 15.6597692,7.61538462 L17.3986154,7.61538462 C17.2843846,7.03069231 17.1523846,6.45953846 16.984,5.92307692 L18.5747692,5.92307692 C18.6297692,5.92307692 18.6788462,5.90192308 18.7321538,5.89176923 C19.0858462,6.42992308 19.3862308,7.00784615 19.6256923,7.61538462 L21.4203846,7.61538462 C19.9895385,3.20184615 15.8433846,0 10.9593846,0 C6.07538462,0 1.92923077,3.20184615 0.497538462,7.61538462 L2.29307692,7.61538462 Z M17.3275385,4.23076923 L16.3223077,4.23076923 C16.104,3.77130769 15.8636923,3.34230769 15.6022308,2.94546154 C16.2283846,3.30761538 16.8054615,3.73915385 17.3275385,4.23076923 Z M10.9593846,1.69230769 C12.2717692,1.69230769 13.4834615,2.66876923 14.3964615,4.23076923 L7.52230769,4.23076923 C8.43530769,2.66876923 9.647,1.69230769 10.9593846,1.69230769 Z M6.31484615,2.94546154 C6.05423077,3.34230769 5.81392308,3.77130769 5.59561538,4.23076923 L4.59123077,4.23076923 C5.11330769,3.73915385 5.69038462,3.30761538 6.31484615,2.94546154 Z" id="Shape"></path>
                        <path d="M19.6256923,14.3846154 C19.3862308,14.993 19.0858462,15.5692308 18.7313077,16.1082308 C18.6788462,16.0980769 18.6297692,16.0769231 18.5747692,16.0769231 L16.9831538,16.0769231 C17.1515385,15.5404615 17.2835385,14.9693077 17.3977692,14.3846154 L15.6589231,14.3846154 C15.5286154,14.9760769 15.3754615,15.5497692 15.1833846,16.0769231 L6.73453846,16.0769231 C6.54246154,15.5497692 6.39015385,14.9760769 6.259,14.3846154 L4.521,14.3846154 C4.63523077,14.9693077 4.76723077,15.5404615 4.93561538,16.0769231 L3.344,16.0769231 C3.289,16.0769231 3.23992308,16.0980769 3.18746154,16.1082308 C2.83292308,15.5692308 2.53253846,14.993 2.29307692,14.3846154 L0.497538462,14.3846154 C1.92923077,18.7981538 6.07538462,22 10.9593846,22 C15.8433846,22 19.9895385,18.7981538 21.4203846,14.3846154 L19.6256923,14.3846154 Z M4.59123077,17.7692308 L5.59646154,17.7692308 C5.81476923,18.2286923 6.05507692,18.6585385 6.31569231,19.0545385 C5.69038462,18.6923846 5.11330769,18.2608462 4.59123077,17.7692308 Z M10.9593846,20.3076923 C9.647,20.3076923 8.43530769,19.3312308 7.52230769,17.7692308 L14.3956154,17.7692308 C13.4834615,19.3312308 12.2717692,20.3076923 10.9593846,20.3076923 Z M15.6030769,19.0545385 C15.8645385,18.6585385 16.1048462,18.2286923 16.3231538,17.7692308 L17.3283846,17.7692308 C16.8054615,18.2608462 16.2283846,18.6923846 15.6030769,19.0545385 Z" id="Shape"></path>
                    </g>
                </g>
            </g>
        </g>
    </g>
</svg>