<?xml version="1.0" encoding="UTF-8"?>
<svg width="32px" height="37px" viewBox="0 0 32 37" version="1.1" xmlns="http://www.w3.org/2000/svg" xmlns:xlink="http://www.w3.org/1999/xlink">
    <!-- Generator: Sketch 51.1 (57501) - http://www.bohemiancoding.com/sketch -->
    <title>Group 20</title>
    <desc>Created with Sketch.</desc>
    <defs></defs>
    <g id="Page-1" stroke="none" stroke-width="1" fill="none" fill-rule="evenodd">
        <g id="Uzstandart6" transform="translate(-876.000000, -689.000000)">
            <g id="Group-28" transform="translate(859.000000, 610.000000)">
                <g id="Group-20" transform="translate(17.000000, 79.000000)">
                    <g id="docx-file-format-symbol-copy-6" fill="#00C956" fill-rule="nonzero">
                        <path d="M29.9720823,12.9133169 L29.1051852,12.9133169 L29.1051852,8.73060082 C29.1051852,8.70432922 29.1011029,8.67825514 29.0976132,8.65158848 C29.0962305,8.48553086 29.0432922,8.32237037 28.9295802,8.19331687 L21.9691852,0.241975309 C21.9670123,0.239934156 21.9649712,0.239209877 21.9635885,0.237168724 C21.922107,0.190814815 21.8737778,0.152098765 21.8224856,0.11891358 C21.8074074,0.108576132 21.7921317,0.100082305 21.7762634,0.0913251029 C21.7320165,0.0672921811 21.6849383,0.0470781893 21.6366091,0.032526749 C21.6234403,0.0291028807 21.6116543,0.0237037037 21.5986173,0.0201481481 C21.5460082,0.00776954733 21.4914239,0 21.4361811,0 L4.32967901,0 C3.54857613,0 2.91397531,0.635325103 2.91397531,1.41576955 L2.91397531,12.9129218 L2.04720988,12.9129218 C0.929777778,12.9129218 0.0237037037,13.8186667 0.0237037037,14.9362963 L0.0237037037,25.4587654 C0.0237037037,26.5758683 0.929777778,27.482535 2.04720988,27.482535 L2.91397531,27.482535 L2.91397531,34.6857613 C2.91397531,35.4662716 3.54857613,36.101465 4.32967901,36.101465 L27.6894156,36.101465 C28.4698601,36.101465 29.1051193,35.4662716 29.1051193,34.6857613 L29.1051193,27.4826008 L29.9720165,27.4826008 C31.0891193,27.4826008 31.9953251,26.5763292 31.9953251,25.4591605 L31.9953251,14.9366914 C31.9953909,13.8190617 31.0891852,12.9133169 29.9720823,12.9133169 Z M4.32967901,1.41609877 L20.7282963,1.41609877 L20.7282963,8.65929218 C20.7282963,9.05040329 21.045465,9.36717695 21.4361811,9.36717695 L27.6894815,9.36717695 L27.6894815,12.9135802 L4.32967901,12.9135802 L4.32967901,1.41609877 Z M27.6894815,34.3024198 L4.32967901,34.3024198 L4.32967901,27.4826008 L27.6894815,27.4826008 L27.6894815,34.3024198 Z" id="Shape"></path>
                        <path d="M7.29079835,19.5079506 C7.30166255,17.9363292 6.38123457,17.1050535 4.91055144,17.1050535 C4.52819753,17.1050535 4.28161317,17.1388971 4.13544033,17.1726749 L4.13544033,22.1241152 C4.28200823,22.1576296 4.5177284,22.1576296 4.73112757,22.1576296 C6.28069136,22.1694156 7.29079835,21.3164115 7.29079835,19.5079506 Z" id="Shape"></path>
                        <path d="M11.6940905,19.6538601 C11.6940905,21.1363292 12.3903868,22.1804115 13.5356708,22.1804115 C14.6923457,22.1804115 15.3540741,21.0806255 15.3540741,19.6095473 C15.3540741,18.2504691 14.7032099,17.0826667 13.5235556,17.0826667 C12.3672099,17.0829959 11.6940905,18.1835062 11.6940905,19.6538601 Z" id="Shape"></path>
                    </g>
                    <path d="M11.4,23.426 L9.762,23.426 L8.7,21.608 L7.638,23.426 L6,23.426 L7.881,20.195 L6.09,17.126 L7.728,17.126 L8.7,18.791 L9.672,17.126 L11.31,17.126 L9.519,20.195 L11.4,23.426 Z M13.47,22.04 L15.72,22.04 L15.72,23.426 L12.03,23.426 L12.03,17.126 L13.47,17.126 L13.47,22.04 Z M18.555,23.552 C17.232,23.552 16.386,22.922 16.035,21.995 L17.277,21.275 C17.502,21.797 17.889,22.148 18.6,22.148 C19.284,22.148 19.455,21.878 19.455,21.635 C19.455,21.248 19.095,21.095 18.15,20.834 C17.214,20.573 16.296,20.123 16.296,18.917 C16.296,17.702 17.322,17 18.411,17 C19.446,17 20.256,17.495 20.715,18.422 L19.5,19.133 C19.284,18.683 18.987,18.404 18.411,18.404 C17.961,18.404 17.736,18.629 17.736,18.881 C17.736,19.169 17.889,19.367 18.87,19.664 C19.824,19.952 20.895,20.285 20.895,21.617 C20.895,22.832 19.923,23.552 18.555,23.552 Z M26.565,23.426 L24.927,23.426 L23.865,21.608 L22.803,23.426 L21.165,23.426 L23.046,20.195 L21.255,17.126 L22.893,17.126 L23.865,18.791 L24.837,17.126 L26.475,17.126 L24.684,20.195 L26.565,23.426 Z" id="xlsx" fill="#FFFFFF"></path>
                </g>
            </g>
        </g>
    </g>
</svg>