<?xml version="1.0" encoding="UTF-8"?>
<svg width="29px" height="40px" viewBox="0 0 29 40" version="1.1" xmlns="http://www.w3.org/2000/svg" xmlns:xlink="http://www.w3.org/1999/xlink">
    <!-- Generator: Sketch 51.1 (57501) - http://www.bohemiancoding.com/sketch -->
    <title>Group 13</title>
    <desc>Created with Sketch.</desc>
    <defs></defs>
    <g id="Page-1" stroke="none" stroke-width="1" fill="none" fill-rule="evenodd">
        <g id="Uzstandart25" transform="translate(-161.000000, -526.000000)">
            <g id="Group-27" transform="translate(131.000000, 508.000000)">
                <g id="Group-20" transform="translate(30.000000, 18.000000)">
                    <g id="Group-13">
                        <g id="Group-10">
                            <path d="M2,0.50877193 L19.0456001,0.50877193 L28.4912281,9.64896951 L28.4912281,37.6842105 C28.4912281,38.78878 27.5957976,39.6842105 26.4912281,39.6842105 L2,39.6842105 C0.8954305,39.6842105 2.06108848e-15,38.78878 -1.99840144e-15,37.6842105 L0,2.50877193 C-1.3527075e-16,1.40420243 0.8954305,0.50877193 2,0.50877193 Z" id="Rectangle-7" fill="#FFD302"></path>
                            <path d="M19.0382351,0.505674535 L19.0382351,7.66179611 C19.0382351,8.76636561 19.9336656,9.66179611 21.0382351,9.66179611 L28.4972768,9.66179611 L19.0382351,0.505674535 Z" id="Path-4" fill-opacity="0.241706295" fill="#000000"></path>
                        </g>
                        <path d="M21.2324219,17.612793 L20.4428711,17.612793 C20.230956,16.9907195 19.8908715,16.3242223 19.4226074,15.6132812 C18.9543434,14.9023402 18.5219746,14.5195315 18.1254883,14.4648438 C17.9067372,14.4374999 17.6367204,14.4135743 17.3154297,14.3930664 C16.994139,14.3725585 16.7172863,14.3623047 16.4848633,14.3623047 L16.0029297,14.3623047 L16.0029297,25.7749023 C16.0029297,26.0209973 16.0473628,26.2380362 16.1362305,26.4260254 C16.2250981,26.6140146 16.3994128,26.7626948 16.6591797,26.8720703 C16.816407,26.9335941 17.0607894,26.9968258 17.392334,27.0617676 C17.7238786,27.1267093 18.0058582,27.1728514 18.2382812,27.2001953 L18.2382812,28 L10.1274414,28 L10.1274414,27.2001953 C10.3256846,27.1796874 10.6042463,27.150635 10.9631348,27.1130371 C11.3220233,27.0754393 11.5664056,27.0292971 11.6962891,26.9746094 C11.962892,26.8652338 12.1406246,26.7182626 12.2294922,26.5336914 C12.3183598,26.3491202 12.362793,26.1303724 12.362793,25.8774414 L12.362793,14.3623047 L11.8808594,14.3623047 C11.6484363,14.3623047 11.3715836,14.3725585 11.050293,14.3930664 C10.7290023,14.4135743 10.4589855,14.4374999 10.2402344,14.4648438 C9.84374802,14.5195315 9.41137929,14.9023402 8.94311523,15.6132812 C8.47485117,16.3242223 8.13476668,16.9907195 7.92285156,17.612793 L7.13330078,17.612793 L7.13330078,13.449707 L21.2324219,13.449707 L21.2324219,17.612793 Z" id="T" fill="#FFFFFF"></path>
                    </g>
                </g>
            </g>
        </g>
    </g>
</svg>