<?xml version="1.0" encoding="UTF-8"?>
<svg width="18px" height="21px" viewBox="0 0 18 21" version="1.1" xmlns="http://www.w3.org/2000/svg" xmlns:xlink="http://www.w3.org/1999/xlink">
    <!-- Generator: Sketch 51.1 (57501) - http://www.bohemiancoding.com/sketch -->
    <title>31</title>
    <desc>Created with Sketch.</desc>
    <defs></defs>
    <g id="Page-1" stroke="none" stroke-width="1" fill="none" fill-rule="evenodd">
        <g id="Artboard-2" transform="translate(-4460.000000, -1884.000000)" fill="#2E406C">
            <path d="M4471.30217,1898.36607 L4471.30217,1900.72098 C4471.30217,1901.2195 4471.15708,1901.46875 4470.8669,1901.46875 C4470.69577,1901.46875 4470.52836,1901.38691 4470.36467,1901.22321 L4470.36467,1897.86384 C4470.52836,1897.70015 4470.69577,1897.6183 4470.8669,1897.6183 C4471.15708,1897.6183 4471.30217,1897.86756 4471.30217,1898.36607 Z M4475.07449,1898.37723 L4475.07449,1898.89062 L4474.07003,1898.89062 L4474.07003,1898.37723 C4474.07003,1897.87128 4474.23744,1897.6183 4474.57226,1897.6183 C4474.90708,1897.6183 4475.07449,1897.87128 4475.07449,1898.37723 Z M4464.29324,1895.9442 L4465.48744,1895.9442 L4465.48744,1894.89509 L4462.00529,1894.89509 L4462.00529,1895.9442 L4463.17717,1895.9442 L4463.17717,1902.29464 L4464.29324,1902.29464 L4464.29324,1895.9442 Z M4467.50753,1902.29464 L4468.50083,1902.29464 L4468.50083,1896.78125 L4467.50753,1896.78125 L4467.50753,1901 C4467.28431,1901.3125 4467.07226,1901.46875 4466.87137,1901.46875 C4466.73744,1901.46875 4466.65931,1901.39063 4466.63699,1901.23438 C4466.62955,1901.21205 4466.62583,1901.08185 4466.62583,1900.84375 L4466.62583,1896.78125 L4465.63253,1896.78125 L4465.63253,1901.14509 C4465.63253,1901.50967 4465.66229,1901.78125 4465.72181,1901.95982 C4465.8111,1902.23512 4466.02687,1902.37277 4466.36913,1902.37277 C4466.72628,1902.37277 4467.10574,1902.14584 4467.50753,1901.69196 L4467.50753,1902.29464 Z M4472.29547,1900.64286 L4472.29547,1898.4442 C4472.29547,1897.90104 4472.26199,1897.53274 4472.19503,1897.33929 C4472.06854,1896.92262 4471.8044,1896.71429 4471.40262,1896.71429 C4471.03059,1896.71429 4470.68461,1896.91518 4470.36467,1897.31696 L4470.36467,1894.89509 L4469.37137,1894.89509 L4469.37137,1902.29464 L4470.36467,1902.29464 L4470.36467,1901.75893 C4470.69949,1902.16816 4471.04547,1902.37277 4471.40262,1902.37277 C4471.8044,1902.37277 4472.06854,1902.16816 4472.19503,1901.75893 C4472.26199,1901.55803 4472.29547,1901.18601 4472.29547,1900.64286 Z M4476.06779,1900.53125 L4476.06779,1900.38616 L4475.05217,1900.38616 C4475.05217,1900.76563 4475.04473,1900.99256 4475.02985,1901.06696 C4474.97776,1901.33482 4474.82896,1901.46875 4474.58342,1901.46875 C4474.24116,1901.46875 4474.07003,1901.21206 4474.07003,1900.69866 L4474.07003,1899.72768 L4476.06779,1899.72768 L4476.06779,1898.57812 C4476.06779,1897.99032 4475.96735,1897.55878 4475.76646,1897.28348 C4475.47628,1896.90402 4475.08193,1896.71429 4474.58342,1896.71429 C4474.07746,1896.71429 4473.6794,1896.90402 4473.38922,1897.28348 C4473.18089,1897.55878 4473.07672,1897.99032 4473.07672,1898.57812 L4473.07672,1900.50893 C4473.07672,1901.09673 4473.18461,1901.52827 4473.40038,1901.80357 C4473.69056,1902.18304 4474.09235,1902.37277 4474.60574,1902.37277 C4475.14146,1902.37277 4475.54324,1902.1756 4475.8111,1901.78125 C4475.94503,1901.58036 4476.02315,1901.37947 4476.04547,1901.17857 C4476.06035,1901.11161 4476.06779,1900.89584 4476.06779,1900.53125 Z M4469.28208,1890.34152 L4469.28208,1887.99777 C4469.28208,1887.48437 4469.12211,1887.22768 4468.80217,1887.22768 C4468.48223,1887.22768 4468.32226,1887.48437 4468.32226,1887.99777 L4468.32226,1890.34152 C4468.32226,1890.86235 4468.48223,1891.12277 4468.80217,1891.12277 C4469.12211,1891.12277 4469.28208,1890.86235 4469.28208,1890.34152 Z M4477.30663,1898.72321 C4477.30663,1900.46429 4477.20991,1901.76636 4477.01646,1902.62946 C4476.91229,1903.06845 4476.69652,1903.43675 4476.36913,1903.73438 C4476.04175,1904.032 4475.66229,1904.20312 4475.23074,1904.24777 C4473.86169,1904.40402 4471.79698,1904.48214 4469.03654,1904.48214 C4466.27611,1904.48214 4464.2114,1904.40402 4462.84235,1904.24777 C4462.4108,1904.20312 4462.02948,1904.032 4461.69838,1903.73438 C4461.36727,1903.43675 4461.15336,1903.06845 4461.05663,1902.62946 C4460.86318,1901.79613 4460.76646,1900.49406 4460.76646,1898.72321 C4460.76646,1896.98213 4460.86318,1895.68006 4461.05663,1894.81696 C4461.1608,1894.37797 4461.37657,1894.00967 4461.70396,1893.71205 C4462.03134,1893.41443 4462.41452,1893.23958 4462.85351,1893.1875 C4464.21512,1893.03869 4466.27611,1892.96429 4469.03654,1892.96429 C4471.79698,1892.96429 4473.86169,1893.03869 4475.23074,1893.1875 C4475.66229,1893.23958 4476.04361,1893.41443 4476.37471,1893.71205 C4476.70582,1894.00967 4476.91973,1894.37797 4477.01646,1894.81696 C4477.20991,1895.6503 4477.30663,1896.95237 4477.30663,1898.72321 Z M4466.16824,1884.48214 L4467.30663,1884.48214 L4465.95619,1888.93527 L4465.95619,1891.95982 L4464.84012,1891.95982 L4464.84012,1888.93527 C4464.73595,1888.38467 4464.50902,1887.59599 4464.15931,1886.5692 C4463.88401,1885.80282 4463.6422,1885.10715 4463.43387,1884.48214 L4464.6169,1884.48214 L4465.40931,1887.41741 L4466.16824,1884.48214 Z M4470.29771,1888.19866 L4470.29771,1890.15179 C4470.29771,1890.75447 4470.19354,1891.19345 4469.98521,1891.46875 C4469.70991,1891.84822 4469.31557,1892.03795 4468.80217,1892.03795 C4468.30366,1892.03795 4467.91303,1891.84822 4467.63029,1891.46875 C4467.42196,1891.18601 4467.31779,1890.74703 4467.31779,1890.15179 L4467.31779,1888.19866 C4467.31779,1887.60342 4467.42196,1887.16816 4467.63029,1886.89286 C4467.91303,1886.51339 4468.30366,1886.32366 4468.80217,1886.32366 C4469.31557,1886.32366 4469.70991,1886.51339 4469.98521,1886.89286 C4470.19354,1887.16816 4470.29771,1887.60342 4470.29771,1888.19866 Z M4474.03654,1886.39062 L4474.03654,1891.95982 L4473.02092,1891.95982 L4473.02092,1891.34598 C4472.62657,1891.80729 4472.24339,1892.03795 4471.87137,1892.03795 C4471.5291,1892.03795 4471.30961,1891.9003 4471.21288,1891.625 C4471.15336,1891.44643 4471.1236,1891.16741 4471.1236,1890.78795 L4471.1236,1886.39062 L4472.13922,1886.39062 L4472.13922,1890.48661 C4472.13922,1890.73214 4472.14294,1890.86235 4472.15038,1890.87723 C4472.17271,1891.04092 4472.25083,1891.12277 4472.38476,1891.12277 C4472.58565,1891.12277 4472.7977,1890.9628 4473.02092,1890.64286 L4473.02092,1886.39062 L4474.03654,1886.39062 Z" id="31"></path>
        </g>
    </g>
</svg>